<svg width="336" height="442" viewBox="0 0 336 442" fill="none" xmlns="http://www.w3.org/2000/svg">
<g clip-path="url(#clip0_437_6)">
<rect x="10" y="10" width="316" height="422" rx="20" fill="white"/>
<path d="M38 40.9282V42.7362H33.344V45.6002H36.912V47.3762H33.344V52.0962H31.104V40.9282H38ZM40.7244 42.1762C40.3297 42.1762 39.999 42.0535 39.7324 41.8082C39.4764 41.5522 39.3484 41.2375 39.3484 40.8642C39.3484 40.4909 39.4764 40.1815 39.7324 39.9362C39.999 39.6802 40.3297 39.5522 40.7244 39.5522C41.119 39.5522 41.4444 39.6802 41.7004 39.9362C41.967 40.1815 42.1004 40.4909 42.1004 40.8642C42.1004 41.2375 41.967 41.5522 41.7004 41.8082C41.4444 42.0535 41.119 42.1762 40.7244 42.1762ZM41.8284 43.2322V52.0962H39.5884V43.2322H41.8284ZM46.2815 40.2562V52.0962H44.0415V40.2562H46.2815ZM56.7346 47.4722C56.7346 47.7922 56.7133 48.0802 56.6706 48.3362H50.1906C50.244 48.9762 50.468 49.4775 50.8626 49.8402C51.2573 50.2029 51.7426 50.3842 52.3186 50.3842C53.1506 50.3842 53.7426 50.0269 54.0946 49.3122H56.5106C56.2546 50.1655 55.764 50.8695 55.0386 51.4242C54.3133 51.9682 53.4226 52.2402 52.3666 52.2402C51.5133 52.2402 50.7453 52.0535 50.0626 51.6802C49.3906 51.2962 48.8626 50.7575 48.4786 50.0642C48.1053 49.3709 47.9186 48.5709 47.9186 47.6642C47.9186 46.7469 48.1053 45.9415 48.4786 45.2482C48.852 44.5549 49.3746 44.0215 50.0466 43.6482C50.7186 43.2749 51.492 43.0882 52.3666 43.0882C53.2093 43.0882 53.9613 43.2695 54.6226 43.6322C55.2946 43.9949 55.812 44.5122 56.1746 45.1842C56.548 45.8455 56.7346 46.6082 56.7346 47.4722ZM54.4146 46.8322C54.404 46.2562 54.196 45.7975 53.7906 45.4562C53.3853 45.1042 52.8893 44.9282 52.3026 44.9282C51.748 44.9282 51.2786 45.0989 50.8946 45.4402C50.5213 45.7709 50.292 46.2349 50.2066 46.8322H54.4146ZM69.0301 49.9682H64.5821L63.8461 52.0962H61.4941L65.5101 40.9122H68.1181L72.1341 52.0962H69.7661L69.0301 49.9682ZM68.4221 48.1762L66.8061 43.5042L65.1901 48.1762H68.4221ZM76.2433 45.0722V49.3602C76.2433 49.6589 76.3126 49.8775 76.4513 50.0162C76.6006 50.1442 76.8459 50.2082 77.1873 50.2082H78.2273V52.0962H76.8193C74.9313 52.0962 73.9873 51.1789 73.9873 49.3442V45.0722H72.9313V43.2322H73.9873V41.0402H76.2433V43.2322H78.2273V45.0722H76.2433ZM82.4464 45.0722V49.3602C82.4464 49.6589 82.5157 49.8775 82.6544 50.0162C82.8037 50.1442 83.049 50.2082 83.3904 50.2082H84.4304V52.0962H83.0224C81.1344 52.0962 80.1904 51.1789 80.1904 49.3442V45.0722H79.1344V43.2322H80.1904V41.0402H82.4464V43.2322H84.4304V45.0722H82.4464ZM85.4655 47.6322C85.4655 46.7362 85.6415 45.9415 85.9935 45.2482C86.3562 44.5549 86.8415 44.0215 87.4495 43.6482C88.0682 43.2749 88.7562 43.0882 89.5135 43.0882C90.1748 43.0882 90.7508 43.2215 91.2415 43.4882C91.7428 43.7549 92.1428 44.0909 92.4415 44.4962V43.2322H94.6975V52.0962H92.4415V50.8002C92.1535 51.2162 91.7535 51.5629 91.2415 51.8402C90.7402 52.1069 90.1588 52.2402 89.4975 52.2402C88.7508 52.2402 88.0682 52.0482 87.4495 51.6642C86.8415 51.2802 86.3562 50.7415 85.9935 50.0482C85.6415 49.3442 85.4655 48.5389 85.4655 47.6322ZM92.4415 47.6642C92.4415 47.1202 92.3348 46.6562 92.1215 46.2722C91.9082 45.8775 91.6202 45.5789 91.2575 45.3762C90.8948 45.1629 90.5055 45.0562 90.0895 45.0562C89.6735 45.0562 89.2895 45.1575 88.9375 45.3602C88.5855 45.5629 88.2975 45.8615 88.0735 46.2562C87.8602 46.6402 87.7535 47.0989 87.7535 47.6322C87.7535 48.1655 87.8602 48.6349 88.0735 49.0402C88.2975 49.4349 88.5855 49.7389 88.9375 49.9522C89.3002 50.1655 89.6842 50.2722 90.0895 50.2722C90.5055 50.2722 90.8948 50.1709 91.2575 49.9682C91.6202 49.7549 91.9082 49.4562 92.1215 49.0722C92.3348 48.6775 92.4415 48.2082 92.4415 47.6642ZM96.3092 47.6642C96.3092 46.7469 96.4959 45.9469 96.8693 45.2642C97.2426 44.5709 97.7599 44.0375 98.4213 43.6642C99.0826 43.2802 99.8399 43.0882 100.693 43.0882C101.792 43.0882 102.699 43.3655 103.413 43.9202C104.139 44.4642 104.624 45.2322 104.869 46.2242H102.453C102.325 45.8402 102.107 45.5415 101.797 45.3282C101.499 45.1042 101.125 44.9922 100.677 44.9922C100.037 44.9922 99.5306 45.2269 99.1573 45.6962C98.7839 46.1549 98.5973 46.8109 98.5973 47.6642C98.5973 48.5069 98.7839 49.1629 99.1573 49.6322C99.5306 50.0909 100.037 50.3202 100.677 50.3202C101.584 50.3202 102.176 49.9149 102.453 49.1042H104.869C104.624 50.0642 104.139 50.8269 103.413 51.3922C102.688 51.9575 101.781 52.2402 100.693 52.2402C99.8399 52.2402 99.0826 52.0535 98.4213 51.6802C97.7599 51.2962 97.2426 50.7629 96.8693 50.0802C96.4959 49.3869 96.3092 48.5815 96.3092 47.6642ZM111.502 43.1042C112.174 43.1042 112.772 43.2535 113.294 43.5522C113.817 43.8402 114.222 44.2722 114.51 44.8482C114.809 45.4135 114.958 46.0962 114.958 46.8962V52.0962H112.718V47.2002C112.718 46.4962 112.542 45.9575 112.19 45.5842C111.838 45.2002 111.358 45.0082 110.75 45.0082C110.132 45.0082 109.641 45.2002 109.278 45.5842C108.926 45.9575 108.75 46.4962 108.75 47.2002V52.0962H106.51V40.2562H108.75V44.3362C109.038 43.9522 109.422 43.6535 109.902 43.4402C110.382 43.2162 110.916 43.1042 111.502 43.1042ZM128.096 43.1042C129.184 43.1042 130.059 43.4402 130.72 44.1122C131.392 44.7735 131.728 45.7015 131.728 46.8962V52.0962H129.488V47.2002C129.488 46.5069 129.312 45.9789 128.96 45.6162C128.608 45.2429 128.128 45.0562 127.52 45.0562C126.912 45.0562 126.427 45.2429 126.064 45.6162C125.712 45.9789 125.536 46.5069 125.536 47.2002V52.0962H123.296V47.2002C123.296 46.5069 123.12 45.9789 122.768 45.6162C122.416 45.2429 121.936 45.0562 121.328 45.0562C120.71 45.0562 120.219 45.2429 119.856 45.6162C119.504 45.9789 119.328 46.5069 119.328 47.2002V52.0962H117.088V43.2322H119.328V44.3042C119.616 43.9309 119.984 43.6375 120.432 43.4242C120.891 43.2109 121.392 43.1042 121.936 43.1042C122.63 43.1042 123.248 43.2535 123.792 43.5522C124.336 43.8402 124.758 44.2562 125.056 44.8002C125.344 44.2882 125.76 43.8775 126.304 43.5682C126.859 43.2589 127.456 43.1042 128.096 43.1042ZM142.094 47.4722C142.094 47.7922 142.073 48.0802 142.03 48.3362H135.55C135.603 48.9762 135.827 49.4775 136.222 49.8402C136.617 50.2029 137.102 50.3842 137.678 50.3842C138.51 50.3842 139.102 50.0269 139.454 49.3122H141.87C141.614 50.1655 141.123 50.8695 140.398 51.4242C139.673 51.9682 138.782 52.2402 137.726 52.2402C136.873 52.2402 136.105 52.0535 135.422 51.6802C134.75 51.2962 134.222 50.7575 133.838 50.0642C133.465 49.3709 133.278 48.5709 133.278 47.6642C133.278 46.7469 133.465 45.9415 133.838 45.2482C134.211 44.5549 134.734 44.0215 135.406 43.6482C136.078 43.2749 136.851 43.0882 137.726 43.0882C138.569 43.0882 139.321 43.2695 139.982 43.6322C140.654 43.9949 141.171 44.5122 141.534 45.1842C141.907 45.8455 142.094 46.6082 142.094 47.4722ZM139.774 46.8322C139.763 46.2562 139.555 45.7975 139.15 45.4562C138.745 45.1042 138.249 44.9282 137.662 44.9282C137.107 44.9282 136.638 45.0989 136.254 45.4402C135.881 45.7709 135.651 46.2349 135.566 46.8322H139.774ZM148.641 43.1042C149.697 43.1042 150.55 43.4402 151.201 44.1122C151.852 44.7735 152.177 45.7015 152.177 46.8962V52.0962H149.937V47.2002C149.937 46.4962 149.761 45.9575 149.409 45.5842C149.057 45.2002 148.577 45.0082 147.969 45.0082C147.35 45.0082 146.86 45.2002 146.497 45.5842C146.145 45.9575 145.969 46.4962 145.969 47.2002V52.0962H143.729V43.2322H145.969V44.3362C146.268 43.9522 146.646 43.6535 147.105 43.4402C147.574 43.2162 148.086 43.1042 148.641 43.1042ZM156.915 45.0722V49.3602C156.915 49.6589 156.984 49.8775 157.123 50.0162C157.272 50.1442 157.518 50.2082 157.859 50.2082H158.899V52.0962H157.491C155.603 52.0962 154.659 51.1789 154.659 49.3442V45.0722H153.603V43.2322H154.659V41.0402H156.915V43.2322H158.899V45.0722H156.915Z" fill="#333333"/>
<path d="M86.3767 94.0222C87.33 94.0222 88.1663 94.2085 88.8857 94.5812C89.6137 94.9539 90.1727 95.4869 90.5627 96.1802C90.9613 96.8649 91.1607 97.6622 91.1607 98.5722C91.1607 99.4822 90.9613 100.28 90.5627 100.964C90.1727 101.64 89.6137 102.165 88.8857 102.537C88.1663 102.91 87.33 103.096 86.3767 103.096H83.2047V94.0222H86.3767ZM86.3117 101.549C87.265 101.549 88.0017 101.289 88.5217 100.769C89.0417 100.249 89.3017 99.5169 89.3017 98.5722C89.3017 97.6275 89.0417 96.8909 88.5217 96.3622C88.0017 95.8249 87.265 95.5562 86.3117 95.5562H85.0247V101.549H86.3117ZM92.055 99.4692C92.055 98.7412 92.198 98.0955 92.484 97.5322C92.7787 96.9689 93.173 96.5355 93.667 96.2322C94.1697 95.9289 94.7287 95.7772 95.344 95.7772C95.8814 95.7772 96.3494 95.8855 96.748 96.1022C97.1554 96.3189 97.4804 96.5919 97.723 96.9212V95.8942H99.556V103.096H97.723V102.043C97.489 102.381 97.164 102.663 96.748 102.888C96.3407 103.105 95.8684 103.213 95.331 103.213C94.7244 103.213 94.1697 103.057 93.667 102.745C93.173 102.433 92.7787 101.996 92.484 101.432C92.198 100.86 92.055 100.206 92.055 99.4692ZM97.723 99.4952C97.723 99.0532 97.6364 98.6762 97.463 98.3642C97.2897 98.0435 97.0557 97.8009 96.761 97.6362C96.4664 97.4629 96.15 97.3762 95.812 97.3762C95.474 97.3762 95.162 97.4585 94.876 97.6232C94.59 97.7879 94.356 98.0305 94.174 98.3512C94.0007 98.6632 93.914 99.0359 93.914 99.4692C93.914 99.9025 94.0007 100.284 94.174 100.613C94.356 100.934 94.59 101.181 94.876 101.354C95.1707 101.528 95.4827 101.614 95.812 101.614C96.15 101.614 96.4664 101.532 96.761 101.367C97.0557 101.194 97.2897 100.951 97.463 100.639C97.6364 100.319 97.723 99.9372 97.723 99.4952ZM103.453 97.3892V100.873C103.453 101.116 103.509 101.294 103.622 101.406C103.743 101.51 103.942 101.562 104.22 101.562H105.065V103.096H103.921C102.387 103.096 101.62 102.351 101.62 100.86V97.3892H100.762V95.8942H101.62V94.1132H103.453V95.8942H105.065V97.3892H103.453ZM105.906 99.4692C105.906 98.7412 106.049 98.0955 106.335 97.5322C106.629 96.9689 107.024 96.5355 107.518 96.2322C108.02 95.9289 108.579 95.7772 109.195 95.7772C109.732 95.7772 110.2 95.8855 110.599 96.1022C111.006 96.3189 111.331 96.5919 111.574 96.9212V95.8942H113.407V103.096H111.574V102.043C111.34 102.381 111.015 102.663 110.599 102.888C110.191 103.105 109.719 103.213 109.182 103.213C108.575 103.213 108.02 103.057 107.518 102.745C107.024 102.433 106.629 101.996 106.335 101.432C106.049 100.86 105.906 100.206 105.906 99.4692ZM111.574 99.4952C111.574 99.0532 111.487 98.6762 111.314 98.3642C111.14 98.0435 110.906 97.8009 110.612 97.6362C110.317 97.4629 110.001 97.3762 109.663 97.3762C109.325 97.3762 109.013 97.4585 108.727 97.6232C108.441 97.7879 108.207 98.0305 108.025 98.3512C107.851 98.6632 107.765 99.0359 107.765 99.4692C107.765 99.9025 107.851 100.284 108.025 100.613C108.207 100.934 108.441 101.181 108.727 101.354C109.021 101.528 109.333 101.614 109.663 101.614C110.001 101.614 110.317 101.532 110.612 101.367C110.906 101.194 111.14 100.951 111.314 100.639C111.487 100.319 111.574 99.9372 111.574 99.4952ZM120.722 97.6882V99.2222H115.21V97.6882H120.722ZM125.519 103.213C124.93 103.213 124.401 103.109 123.933 102.901C123.465 102.685 123.093 102.394 122.815 102.03C122.547 101.666 122.399 101.263 122.373 100.821H124.206C124.241 101.099 124.375 101.328 124.609 101.51C124.852 101.692 125.151 101.783 125.506 101.783C125.853 101.783 126.122 101.714 126.312 101.575C126.512 101.437 126.611 101.259 126.611 101.042C126.611 100.808 126.49 100.635 126.247 100.522C126.013 100.401 125.636 100.271 125.116 100.132C124.579 100.002 124.137 99.8679 123.79 99.7292C123.452 99.5905 123.158 99.3782 122.906 99.0922C122.664 98.8062 122.542 98.4205 122.542 97.9352C122.542 97.5365 122.655 97.1725 122.88 96.8432C123.114 96.5139 123.444 96.2539 123.868 96.0632C124.302 95.8725 124.809 95.7772 125.389 95.7772C126.247 95.7772 126.932 95.9939 127.443 96.4272C127.955 96.8519 128.236 97.4282 128.288 98.1562H126.546C126.52 97.8702 126.399 97.6449 126.182 97.4802C125.974 97.3069 125.693 97.2202 125.337 97.2202C125.008 97.2202 124.752 97.2809 124.57 97.4022C124.397 97.5235 124.31 97.6925 124.31 97.9092C124.31 98.1519 124.432 98.3382 124.674 98.4682C124.917 98.5895 125.294 98.7152 125.805 98.8452C126.325 98.9752 126.754 99.1095 127.092 99.2482C127.43 99.3869 127.721 99.6035 127.963 99.8982C128.215 100.184 128.345 100.566 128.353 101.042C128.353 101.458 128.236 101.831 128.002 102.16C127.777 102.49 127.448 102.75 127.014 102.94C126.59 103.122 126.091 103.213 125.519 103.213ZM131.966 97.3892V100.873C131.966 101.116 132.023 101.294 132.135 101.406C132.257 101.51 132.456 101.562 132.733 101.562H133.578V103.096H132.434C130.9 103.096 130.133 102.351 130.133 100.86V97.3892H129.275V95.8942H130.133V94.1132H131.966V95.8942H133.578V97.3892H131.966ZM136.707 97.0122C136.941 96.6309 137.245 96.3319 137.617 96.1152C137.999 95.8985 138.432 95.7902 138.917 95.7902V97.7012H138.436C137.864 97.7012 137.431 97.8355 137.136 98.1042C136.85 98.3729 136.707 98.8409 136.707 99.5082V103.096H134.887V95.8942H136.707V97.0122ZM146.942 95.8942V103.096H145.109V102.186C144.875 102.498 144.567 102.745 144.186 102.927C143.813 103.101 143.406 103.187 142.964 103.187C142.401 103.187 141.902 103.07 141.469 102.836C141.036 102.594 140.693 102.243 140.442 101.783C140.199 101.315 140.078 100.761 140.078 100.119V95.8942H141.898V99.8592C141.898 100.431 142.041 100.873 142.327 101.185C142.613 101.489 143.003 101.64 143.497 101.64C144 101.64 144.394 101.489 144.68 101.185C144.966 100.873 145.109 100.431 145.109 99.8592V95.8942H146.942ZM148.27 99.4952C148.27 98.7499 148.422 98.0999 148.725 97.5452C149.028 96.9819 149.449 96.5485 149.986 96.2452C150.523 95.9332 151.139 95.7772 151.832 95.7772C152.725 95.7772 153.461 96.0025 154.042 96.4532C154.631 96.8952 155.026 97.5192 155.225 98.3252H153.262C153.158 98.0132 152.98 97.7705 152.729 97.5972C152.486 97.4152 152.183 97.3242 151.819 97.3242C151.299 97.3242 150.887 97.5149 150.584 97.8962C150.281 98.2689 150.129 98.8019 150.129 99.4952C150.129 100.18 150.281 100.713 150.584 101.094C150.887 101.467 151.299 101.653 151.819 101.653C152.556 101.653 153.037 101.324 153.262 100.665H155.225C155.026 101.445 154.631 102.065 154.042 102.524C153.453 102.984 152.716 103.213 151.832 103.213C151.139 103.213 150.523 103.062 149.986 102.758C149.449 102.446 149.028 102.013 148.725 101.458C148.422 100.895 148.27 100.241 148.27 99.4952ZM158.677 97.3892V100.873C158.677 101.116 158.734 101.294 158.846 101.406C158.968 101.51 159.167 101.562 159.444 101.562H160.289V103.096H159.145C157.611 103.096 156.844 102.351 156.844 100.86V97.3892H155.986V95.8942H156.844V94.1132H158.677V95.8942H160.289V97.3892H158.677ZM168.397 95.8942V103.096H166.564V102.186C166.33 102.498 166.023 102.745 165.641 102.927C165.269 103.101 164.861 103.187 164.419 103.187C163.856 103.187 163.358 103.07 162.924 102.836C162.491 102.594 162.149 102.243 161.897 101.783C161.655 101.315 161.533 100.761 161.533 100.119V95.8942H163.353V99.8592C163.353 100.431 163.496 100.873 163.782 101.185C164.068 101.489 164.458 101.64 164.952 101.64C165.455 101.64 165.849 101.489 166.135 101.185C166.421 100.873 166.564 100.431 166.564 99.8592V95.8942H168.397ZM172.013 97.0122C172.247 96.6309 172.55 96.3319 172.923 96.1152C173.304 95.8985 173.738 95.7902 174.223 95.7902V97.7012H173.742C173.17 97.7012 172.737 97.8355 172.442 98.1042C172.156 98.3729 172.013 98.8409 172.013 99.5082V103.096H170.193V95.8942H172.013V97.0122ZM182.144 99.3392C182.144 99.5992 182.126 99.8332 182.092 100.041H176.827C176.87 100.561 177.052 100.969 177.373 101.263C177.693 101.558 178.088 101.705 178.556 101.705C179.232 101.705 179.713 101.415 179.999 100.834H181.962C181.754 101.528 181.355 102.1 180.766 102.55C180.176 102.992 179.453 103.213 178.595 103.213C177.901 103.213 177.277 103.062 176.723 102.758C176.177 102.446 175.748 102.009 175.436 101.445C175.132 100.882 174.981 100.232 174.981 99.4952C174.981 98.7499 175.132 98.0955 175.436 97.5322C175.739 96.9689 176.164 96.5355 176.71 96.2322C177.256 95.9289 177.884 95.7772 178.595 95.7772C179.279 95.7772 179.89 95.9245 180.428 96.2192C180.974 96.5139 181.394 96.9342 181.689 97.4802C181.992 98.0175 182.144 98.6372 182.144 99.3392ZM180.259 98.8192C180.25 98.3512 180.081 97.9785 179.752 97.7012C179.422 97.4152 179.019 97.2722 178.543 97.2722C178.092 97.2722 177.711 97.4109 177.399 97.6882C177.095 97.9569 176.909 98.3339 176.84 98.8192H180.259ZM186.228 103.213C185.639 103.213 185.11 103.109 184.642 102.901C184.174 102.685 183.802 102.394 183.524 102.03C183.256 101.666 183.108 101.263 183.082 100.821H184.915C184.95 101.099 185.084 101.328 185.318 101.51C185.561 101.692 185.86 101.783 186.215 101.783C186.562 101.783 186.831 101.714 187.021 101.575C187.221 101.437 187.32 101.259 187.32 101.042C187.32 100.808 187.199 100.635 186.956 100.522C186.722 100.401 186.345 100.271 185.825 100.132C185.288 100.002 184.846 99.8679 184.499 99.7292C184.161 99.5905 183.867 99.3782 183.615 99.0922C183.373 98.8062 183.251 98.4205 183.251 97.9352C183.251 97.5365 183.364 97.1725 183.589 96.8432C183.823 96.5139 184.153 96.2539 184.577 96.0632C185.011 95.8725 185.518 95.7772 186.098 95.7772C186.956 95.7772 187.641 95.9939 188.152 96.4272C188.664 96.8519 188.945 97.4282 188.997 98.1562H187.255C187.229 97.8702 187.108 97.6449 186.891 97.4802C186.683 97.3069 186.402 97.2202 186.046 97.2202C185.717 97.2202 185.461 97.2809 185.279 97.4022C185.106 97.5235 185.019 97.6925 185.019 97.9092C185.019 98.1519 185.141 98.3382 185.383 98.4682C185.626 98.5895 186.003 98.7152 186.514 98.8452C187.034 98.9752 187.463 99.1095 187.801 99.2482C188.139 99.3869 188.43 99.6035 188.672 99.8982C188.924 100.184 189.054 100.566 189.062 101.042C189.062 101.458 188.945 101.831 188.711 102.16C188.486 102.49 188.157 102.75 187.723 102.94C187.299 103.122 186.8 103.213 186.228 103.213ZM191.362 103.187C191.033 103.187 190.76 103.088 190.543 102.888C190.335 102.68 190.231 102.425 190.231 102.121C190.231 101.818 190.335 101.567 190.543 101.367C190.76 101.159 191.033 101.055 191.362 101.055C191.683 101.055 191.947 101.159 192.155 101.367C192.363 101.567 192.467 101.818 192.467 102.121C192.467 102.425 192.363 102.68 192.155 102.888C191.947 103.088 191.683 103.187 191.362 103.187ZM197.911 103.096L196.429 100.86L195.116 103.096H193.166L195.519 99.4822L193.14 95.8942H195.194L196.663 98.1172L197.989 95.8942H199.939L197.573 99.4822L199.965 103.096H197.911ZM202.774 93.4762V103.096H200.954V93.4762H202.774ZM207.328 103.213C206.739 103.213 206.21 103.109 205.742 102.901C205.274 102.685 204.901 102.394 204.624 102.03C204.355 101.666 204.208 101.263 204.182 100.821H206.015C206.05 101.099 206.184 101.328 206.418 101.51C206.661 101.692 206.96 101.783 207.315 101.783C207.662 101.783 207.93 101.714 208.121 101.575C208.32 101.437 208.42 101.259 208.42 101.042C208.42 100.808 208.299 100.635 208.056 100.522C207.822 100.401 207.445 100.271 206.925 100.132C206.388 100.002 205.946 99.8679 205.599 99.7292C205.261 99.5905 204.966 99.3782 204.715 99.0922C204.472 98.8062 204.351 98.4205 204.351 97.9352C204.351 97.5365 204.464 97.1725 204.689 96.8432C204.923 96.5139 205.252 96.2539 205.677 96.0632C206.11 95.8725 206.617 95.7772 207.198 95.7772C208.056 95.7772 208.741 95.9939 209.252 96.4272C209.763 96.8519 210.045 97.4282 210.097 98.1562H208.355C208.329 97.8702 208.208 97.6449 207.991 97.4802C207.783 97.3069 207.501 97.2202 207.146 97.2202C206.817 97.2202 206.561 97.2809 206.379 97.4022C206.206 97.5235 206.119 97.6925 206.119 97.9092C206.119 98.1519 206.24 98.3382 206.483 98.4682C206.726 98.5895 207.103 98.7152 207.614 98.8452C208.134 98.9752 208.563 99.1095 208.901 99.2482C209.239 99.3869 209.529 99.6035 209.772 99.8982C210.023 100.184 210.153 100.566 210.162 101.042C210.162 101.458 210.045 101.831 209.811 102.16C209.586 102.49 209.256 102.75 208.823 102.94C208.398 103.122 207.9 103.213 207.328 103.213Z" fill="#333333"/>
<path d="M257.789 94.7762V93.6972H260.233V103.096H259.037V94.7762H257.789ZM262.837 103.174C262.612 103.174 262.421 103.096 262.265 102.94C262.109 102.784 262.031 102.594 262.031 102.368C262.031 102.143 262.109 101.952 262.265 101.796C262.421 101.64 262.612 101.562 262.837 101.562C263.054 101.562 263.236 101.64 263.383 101.796C263.539 101.952 263.617 102.143 263.617 102.368C263.617 102.594 263.539 102.784 263.383 102.94C263.236 103.096 263.054 103.174 262.837 103.174ZM264.708 101.003V100.106L269.271 93.7882H270.688V99.9762H271.988V101.003H270.688V103.096H269.518V101.003H264.708ZM269.57 95.0232L266.073 99.9762H269.57V95.0232ZM286.022 94.1002V103.096H284.839V96.3882L281.849 103.096H281.017L278.014 96.3752V103.096H276.831V94.1002H278.105L281.433 101.536L284.761 94.1002H286.022ZM292.565 98.4292C292.895 98.4812 293.194 98.6155 293.462 98.8322C293.74 99.0489 293.956 99.3175 294.112 99.6382C294.277 99.9589 294.359 100.301 294.359 100.665C294.359 101.125 294.242 101.541 294.008 101.913C293.774 102.277 293.432 102.568 292.981 102.784C292.539 102.992 292.015 103.096 291.408 103.096H288.028V94.0352H291.278C291.894 94.0352 292.418 94.1392 292.851 94.3472C293.285 94.5465 293.61 94.8195 293.826 95.1662C294.043 95.5129 294.151 95.9029 294.151 96.3362C294.151 96.8735 294.004 97.3199 293.709 97.6752C293.423 98.0219 293.042 98.2732 292.565 98.4292ZM289.211 97.9482H291.2C291.755 97.9482 292.184 97.8182 292.487 97.5582C292.791 97.2982 292.942 96.9385 292.942 96.4792C292.942 96.0199 292.791 95.6602 292.487 95.4002C292.184 95.1402 291.746 95.0102 291.174 95.0102H289.211V97.9482ZM291.304 102.121C291.894 102.121 292.353 101.983 292.682 101.705C293.012 101.428 293.176 101.042 293.176 100.548C293.176 100.046 293.003 99.6512 292.656 99.3652C292.31 99.0705 291.846 98.9232 291.265 98.9232H289.211V102.121H291.304Z" fill="#4F4F4F"/>
<path d="M83.1943 121.101C83.1943 120.285 83.3783 119.553 83.7463 118.905C84.1143 118.249 84.6143 117.737 85.2463 117.369C85.8863 117.001 86.5943 116.817 87.3703 116.817C88.2823 116.817 89.0783 117.037 89.7583 117.477C90.4383 117.917 90.9343 118.541 91.2463 119.349H89.9383C89.7063 118.845 89.3703 118.457 88.9303 118.185C88.4983 117.913 87.9783 117.777 87.3703 117.777C86.7863 117.777 86.2623 117.913 85.7983 118.185C85.3343 118.457 84.9703 118.845 84.7063 119.349C84.4423 119.845 84.3103 120.429 84.3103 121.101C84.3103 121.765 84.4423 122.349 84.7063 122.853C84.9703 123.349 85.3343 123.733 85.7983 124.005C86.2623 124.277 86.7863 124.413 87.3703 124.413C87.9783 124.413 88.4983 124.281 88.9303 124.017C89.3703 123.745 89.7063 123.357 89.9383 122.853H91.2463C90.9343 123.653 90.4383 124.273 89.7583 124.713C89.0783 125.145 88.2823 125.361 87.3703 125.361C86.5943 125.361 85.8863 125.181 85.2463 124.821C84.6143 124.453 84.1143 123.945 83.7463 123.297C83.3783 122.649 83.1943 121.917 83.1943 121.101ZM95.7399 125.397C95.1239 125.397 94.5639 125.257 94.0599 124.977C93.5639 124.697 93.1719 124.301 92.8839 123.789C92.6039 123.269 92.4639 122.669 92.4639 121.989C92.4639 121.317 92.6079 120.725 92.8959 120.213C93.1919 119.693 93.5919 119.297 94.0959 119.025C94.5999 118.745 95.1639 118.605 95.7879 118.605C96.4119 118.605 96.9759 118.745 97.4799 119.025C97.9839 119.297 98.3799 119.689 98.6679 120.201C98.9639 120.713 99.1119 121.309 99.1119 121.989C99.1119 122.669 98.9599 123.269 98.6559 123.789C98.3599 124.301 97.9559 124.697 97.4439 124.977C96.9319 125.257 96.3639 125.397 95.7399 125.397ZM95.7399 124.437C96.1319 124.437 96.4999 124.345 96.8439 124.161C97.1879 123.977 97.4639 123.701 97.6719 123.333C97.8879 122.965 97.9959 122.517 97.9959 121.989C97.9959 121.461 97.8919 121.013 97.6839 120.645C97.4759 120.277 97.2039 120.005 96.8679 119.829C96.5319 119.645 96.1679 119.553 95.7759 119.553C95.3759 119.553 95.0079 119.645 94.6719 119.829C94.3439 120.005 94.0799 120.277 93.8799 120.645C93.6799 121.013 93.5799 121.461 93.5799 121.989C93.5799 122.525 93.6759 122.977 93.8679 123.345C94.0679 123.713 94.3319 123.989 94.6599 124.173C94.9879 124.349 95.3479 124.437 95.7399 124.437ZM106.38 118.713V125.289H105.288V124.317C105.08 124.653 104.788 124.917 104.412 125.109C104.044 125.293 103.636 125.385 103.188 125.385C102.676 125.385 102.216 125.281 101.808 125.073C101.4 124.857 101.076 124.537 100.836 124.113C100.604 123.689 100.488 123.173 100.488 122.565V118.713H101.568V122.421C101.568 123.069 101.732 123.569 102.06 123.921C102.388 124.265 102.836 124.437 103.404 124.437C103.988 124.437 104.448 124.257 104.784 123.897C105.12 123.537 105.288 123.013 105.288 122.325V118.713H106.38ZM109.315 119.781C109.507 119.405 109.779 119.113 110.131 118.905C110.491 118.697 110.927 118.593 111.439 118.593V119.721H111.151C109.927 119.721 109.315 120.385 109.315 121.713V125.289H108.223V118.713H109.315V119.781ZM114.032 119.613V123.489C114.032 123.809 114.1 124.037 114.236 124.173C114.372 124.301 114.608 124.365 114.944 124.365H115.748V125.289H114.764C114.156 125.289 113.7 125.149 113.396 124.869C113.092 124.589 112.94 124.129 112.94 123.489V119.613H112.088V118.713H112.94V117.057H114.032V118.713H115.748V119.613H114.032ZM120.275 118.593C121.075 118.593 121.723 118.837 122.219 119.325C122.715 119.805 122.963 120.501 122.963 121.413V125.289H121.883V121.569C121.883 120.913 121.719 120.413 121.391 120.069C121.063 119.717 120.615 119.541 120.047 119.541C119.471 119.541 119.011 119.721 118.667 120.081C118.331 120.441 118.163 120.965 118.163 121.653V125.289H117.071V118.713H118.163V119.649C118.379 119.313 118.671 119.053 119.039 118.869C119.415 118.685 119.827 118.593 120.275 118.593ZM130.747 121.749C130.747 121.957 130.735 122.177 130.711 122.409H125.455C125.495 123.057 125.715 123.565 126.115 123.933C126.523 124.293 127.015 124.473 127.591 124.473C128.063 124.473 128.455 124.365 128.767 124.149C129.087 123.925 129.311 123.629 129.439 123.261H130.615C130.439 123.893 130.087 124.409 129.559 124.809C129.031 125.201 128.375 125.397 127.591 125.397C126.967 125.397 126.407 125.257 125.911 124.977C125.423 124.697 125.039 124.301 124.759 123.789C124.479 123.269 124.339 122.669 124.339 121.989C124.339 121.309 124.475 120.713 124.747 120.201C125.019 119.689 125.399 119.297 125.887 119.025C126.383 118.745 126.951 118.605 127.591 118.605C128.215 118.605 128.767 118.741 129.247 119.013C129.727 119.285 130.095 119.661 130.351 120.141C130.615 120.613 130.747 121.149 130.747 121.749ZM129.619 121.521C129.619 121.105 129.527 120.749 129.343 120.453C129.159 120.149 128.907 119.921 128.587 119.769C128.275 119.609 127.927 119.529 127.543 119.529C126.991 119.529 126.519 119.705 126.127 120.057C125.743 120.409 125.523 120.897 125.467 121.521H129.619ZM137.852 118.713L133.892 128.385H132.764L134.06 125.217L131.408 118.713H132.62L134.684 124.041L136.724 118.713H137.852ZM148.593 116.925V125.289H147.501V121.497H143.241V125.289H142.149V116.925H143.241V120.597H147.501V116.925H148.593ZM156.458 121.749C156.458 121.957 156.446 122.177 156.422 122.409H151.166C151.206 123.057 151.426 123.565 151.826 123.933C152.234 124.293 152.726 124.473 153.302 124.473C153.774 124.473 154.166 124.365 154.478 124.149C154.798 123.925 155.022 123.629 155.15 123.261H156.326C156.15 123.893 155.798 124.409 155.27 124.809C154.742 125.201 154.086 125.397 153.302 125.397C152.678 125.397 152.118 125.257 151.622 124.977C151.134 124.697 150.75 124.301 150.47 123.789C150.19 123.269 150.05 122.669 150.05 121.989C150.05 121.309 150.186 120.713 150.458 120.201C150.73 119.689 151.11 119.297 151.598 119.025C152.094 118.745 152.662 118.605 153.302 118.605C153.926 118.605 154.478 118.741 154.958 119.013C155.438 119.285 155.806 119.661 156.062 120.141C156.326 120.613 156.458 121.149 156.458 121.749ZM155.33 121.521C155.33 121.105 155.238 120.749 155.054 120.453C154.87 120.149 154.618 119.921 154.298 119.769C153.986 119.609 153.638 119.529 153.254 119.529C152.702 119.529 152.23 119.705 151.838 120.057C151.454 120.409 151.234 120.897 151.178 121.521H155.33ZM161.103 118.593C161.903 118.593 162.551 118.837 163.047 119.325C163.543 119.805 163.791 120.501 163.791 121.413V125.289H162.711V121.569C162.711 120.913 162.547 120.413 162.219 120.069C161.891 119.717 161.443 119.541 160.875 119.541C160.299 119.541 159.839 119.721 159.495 120.081C159.159 120.441 158.991 120.965 158.991 121.653V125.289H157.899V118.713H158.991V119.649C159.207 119.313 159.499 119.053 159.867 118.869C160.243 118.685 160.655 118.593 161.103 118.593ZM166.667 119.781C166.859 119.405 167.131 119.113 167.483 118.905C167.843 118.697 168.279 118.593 168.791 118.593V119.721H168.503C167.279 119.721 166.667 120.385 166.667 121.713V125.289H165.575V118.713H166.667V119.781ZM175.716 118.713L171.756 128.385H170.628L171.924 125.217L169.272 118.713H170.484L172.548 124.041L174.588 118.713H175.716Z" fill="#828282"/>
<path d="M62 101.304V123.25C62 124.535 61.4943 125.768 60.5941 126.677C59.6939 127.586 58.473 128.096 57.2 128.096H34.8C33.527 128.096 32.3061 127.586 31.4059 126.677C30.5057 125.768 30 124.535 30 123.25V90.9423C30 89.6571 30.5057 88.4244 31.4059 87.5156C32.3061 86.6068 33.527 86.0962 34.8 86.0962H46.5C47.3484 86.0963 46.337 86.4366 46.937 87.0422L61.063 101.304C61.6628 101.91 61.9999 100.447 62 101.304Z" fill="#219653" stroke="#219653" stroke-width="2" stroke-linejoin="round"/>
<path d="M47 86.0962C47 90.7208 47 97.9383 47 97.9383C47 98.7758 47.3327 99.579 47.9249 100.171C48.5171 100.763 49.3204 101.096 50.1579 101.096H62" fill="#6FCF97"/>
<path d="M47 86.0962C47 90.7208 47 97.9383 47 97.9383C47 98.7758 47.3327 99.579 47.9249 100.171C48.5171 100.763 49.3204 101.096 50.1579 101.096H62L47 86.0962Z" stroke="#6FCF97" stroke-width="2" stroke-linecap="round" stroke-linejoin="round"/>
<path d="M46.3309 123.289L44.8209 120.939L43.4509 123.289H41.8709L44.0709 119.769L41.8409 116.309H43.4509L44.9609 118.649L46.3209 116.309H47.9009L45.7109 119.819L47.9409 123.289H46.3309ZM50.4064 122.179H52.7064V123.289H49.0064V116.309H50.4064V122.179ZM56.0063 123.359C55.5196 123.359 55.0796 123.275 54.6863 123.109C54.2996 122.942 53.9929 122.702 53.7663 122.389C53.5396 122.075 53.4229 121.705 53.4163 121.279H54.9163C54.9363 121.565 55.0363 121.792 55.2163 121.959C55.4029 122.125 55.6563 122.209 55.9763 122.209C56.3029 122.209 56.5596 122.132 56.7463 121.979C56.9329 121.819 57.0263 121.612 57.0263 121.359C57.0263 121.152 56.9629 120.982 56.8363 120.849C56.7096 120.715 56.5496 120.612 56.3563 120.539C56.1696 120.459 55.9096 120.372 55.5763 120.279C55.1229 120.145 54.7529 120.015 54.4663 119.889C54.1863 119.755 53.9429 119.559 53.7363 119.299C53.5363 119.032 53.4363 118.679 53.4363 118.239C53.4363 117.825 53.5396 117.465 53.7463 117.159C53.9529 116.852 54.2429 116.619 54.6163 116.459C54.9896 116.292 55.4163 116.209 55.8963 116.209C56.6163 116.209 57.1996 116.385 57.6463 116.739C58.0996 117.085 58.3496 117.572 58.3963 118.199H56.8563C56.8429 117.959 56.7396 117.762 56.5463 117.609C56.3596 117.449 56.1096 117.369 55.7963 117.369C55.5229 117.369 55.3029 117.439 55.1363 117.579C54.9763 117.719 54.8963 117.922 54.8963 118.189C54.8963 118.375 54.9563 118.532 55.0763 118.659C55.2029 118.779 55.3563 118.879 55.5363 118.959C55.7229 119.032 55.9829 119.119 56.3163 119.219C56.7696 119.352 57.1396 119.485 57.4263 119.619C57.7129 119.752 57.9596 119.952 58.1663 120.219C58.3729 120.485 58.4763 120.835 58.4763 121.269C58.4763 121.642 58.3796 121.989 58.1862 122.309C57.9929 122.629 57.7096 122.885 57.3363 123.079C56.9629 123.265 56.5196 123.359 56.0063 123.359Z" fill="#F2F2F2"/>
<path d="M89.3797 166.215V167.684H86.9617V175.289H85.1417V167.684H82.7237V166.215H89.3797ZM97.4026 171.532C97.4026 171.792 97.3853 172.026 97.3506 172.234H92.0856C92.1289 172.754 92.3109 173.161 92.6316 173.456C92.9523 173.75 93.3466 173.898 93.8146 173.898C94.4906 173.898 94.9716 173.607 95.2576 173.027H97.2206C97.0126 173.72 96.6139 174.292 96.0246 174.743C95.4353 175.185 94.7116 175.406 93.8536 175.406C93.1603 175.406 92.5363 175.254 91.9816 174.951C91.4356 174.639 91.0066 174.201 90.6946 173.638C90.3913 173.074 90.2396 172.424 90.2396 171.688C90.2396 170.942 90.3913 170.288 90.6946 169.725C90.9979 169.161 91.4226 168.728 91.9686 168.425C92.5146 168.121 93.1429 167.97 93.8536 167.97C94.5383 167.97 95.1493 168.117 95.6866 168.412C96.2326 168.706 96.6529 169.127 96.9476 169.673C97.2509 170.21 97.4026 170.83 97.4026 171.532ZM95.5176 171.012C95.5089 170.544 95.3399 170.171 95.0106 169.894C94.6813 169.608 94.2783 169.465 93.8016 169.465C93.3509 169.465 92.9696 169.603 92.6576 169.881C92.3543 170.149 92.1679 170.526 92.0986 171.012H95.5176ZM98.263 171.662C98.263 170.934 98.406 170.288 98.692 169.725C98.9867 169.161 99.381 168.728 99.875 168.425C100.378 168.121 100.937 167.97 101.552 167.97C102.089 167.97 102.557 168.078 102.956 168.295C103.363 168.511 103.688 168.784 103.931 169.114V168.087H105.764V175.289H103.931V174.236C103.697 174.574 103.372 174.855 102.956 175.081C102.549 175.297 102.076 175.406 101.539 175.406C100.932 175.406 100.378 175.25 99.875 174.938C99.381 174.626 98.9867 174.188 98.692 173.625C98.406 173.053 98.263 172.398 98.263 171.662ZM103.931 171.688C103.931 171.246 103.844 170.869 103.671 170.557C103.498 170.236 103.264 169.993 102.969 169.829C102.674 169.655 102.358 169.569 102.02 169.569C101.682 169.569 101.37 169.651 101.084 169.816C100.798 169.98 100.564 170.223 100.382 170.544C100.209 170.856 100.122 171.228 100.122 171.662C100.122 172.095 100.209 172.476 100.382 172.806C100.564 173.126 100.798 173.373 101.084 173.547C101.379 173.72 101.691 173.807 102.02 173.807C102.358 173.807 102.674 173.724 102.969 173.56C103.264 173.386 103.498 173.144 103.671 172.832C103.844 172.511 103.931 172.13 103.931 171.688ZM116.486 167.983C117.37 167.983 118.08 168.256 118.618 168.802C119.164 169.339 119.437 170.093 119.437 171.064V175.289H117.617V171.311C117.617 170.747 117.474 170.318 117.188 170.024C116.902 169.72 116.512 169.569 116.018 169.569C115.524 169.569 115.129 169.72 114.835 170.024C114.549 170.318 114.406 170.747 114.406 171.311V175.289H112.586V171.311C112.586 170.747 112.443 170.318 112.157 170.024C111.871 169.72 111.481 169.569 110.987 169.569C110.484 169.569 110.085 169.72 109.791 170.024C109.505 170.318 109.362 170.747 109.362 171.311V175.289H107.542V168.087H109.362V168.958C109.596 168.654 109.895 168.416 110.259 168.243C110.631 168.069 111.039 167.983 111.481 167.983C112.044 167.983 112.547 168.104 112.989 168.347C113.431 168.581 113.773 168.919 114.016 169.361C114.25 168.945 114.588 168.611 115.03 168.36C115.48 168.108 115.966 167.983 116.486 167.983ZM126.702 169.881V171.415H121.19V169.881H126.702ZM135.36 169.023C135.36 169.508 135.243 169.963 135.009 170.388C134.783 170.812 134.424 171.155 133.93 171.415C133.444 171.675 132.829 171.805 132.084 171.805H130.563V175.289H128.743V166.215H132.084C132.786 166.215 133.384 166.336 133.878 166.579C134.372 166.821 134.74 167.155 134.983 167.58C135.234 168.004 135.36 168.485 135.36 169.023ZM132.006 170.336C132.508 170.336 132.881 170.223 133.124 169.998C133.366 169.764 133.488 169.439 133.488 169.023C133.488 168.139 132.994 167.697 132.006 167.697H130.563V170.336H132.006ZM140.708 167.983C141.254 167.983 141.739 168.104 142.164 168.347C142.589 168.581 142.918 168.932 143.152 169.4C143.395 169.859 143.516 170.414 143.516 171.064V175.289H141.696V171.311C141.696 170.739 141.553 170.301 141.267 169.998C140.981 169.686 140.591 169.53 140.097 169.53C139.594 169.53 139.196 169.686 138.901 169.998C138.615 170.301 138.472 170.739 138.472 171.311V175.289H136.652V165.669H138.472V168.984C138.706 168.672 139.018 168.429 139.408 168.256C139.798 168.074 140.231 167.983 140.708 167.983ZM148.445 175.406C147.751 175.406 147.127 175.254 146.573 174.951C146.018 174.639 145.58 174.201 145.26 173.638C144.948 173.074 144.792 172.424 144.792 171.688C144.792 170.951 144.952 170.301 145.273 169.738C145.602 169.174 146.048 168.741 146.612 168.438C147.175 168.126 147.803 167.97 148.497 167.97C149.19 167.97 149.818 168.126 150.382 168.438C150.945 168.741 151.387 169.174 151.708 169.738C152.037 170.301 152.202 170.951 152.202 171.688C152.202 172.424 152.033 173.074 151.695 173.638C151.365 174.201 150.915 174.639 150.343 174.951C149.779 175.254 149.147 175.406 148.445 175.406ZM148.445 173.82C148.774 173.82 149.082 173.742 149.368 173.586C149.662 173.421 149.896 173.178 150.07 172.858C150.243 172.537 150.33 172.147 150.33 171.688C150.33 171.003 150.148 170.479 149.784 170.115C149.428 169.742 148.991 169.556 148.471 169.556C147.951 169.556 147.513 169.742 147.158 170.115C146.811 170.479 146.638 171.003 146.638 171.688C146.638 172.372 146.807 172.901 147.145 173.274C147.491 173.638 147.925 173.82 148.445 173.82ZM155.656 169.582V173.066C155.656 173.308 155.712 173.486 155.825 173.599C155.946 173.703 156.145 173.755 156.423 173.755H157.268V175.289H156.124C154.59 175.289 153.823 174.543 153.823 173.053V169.582H152.965V168.087H153.823V166.306H155.656V168.087H157.268V169.582H155.656ZM161.775 175.406C161.081 175.406 160.457 175.254 159.903 174.951C159.348 174.639 158.91 174.201 158.59 173.638C158.278 173.074 158.122 172.424 158.122 171.688C158.122 170.951 158.282 170.301 158.603 169.738C158.932 169.174 159.378 168.741 159.942 168.438C160.505 168.126 161.133 167.97 161.827 167.97C162.52 167.97 163.148 168.126 163.712 168.438C164.275 168.741 164.717 169.174 165.038 169.738C165.367 170.301 165.532 170.951 165.532 171.688C165.532 172.424 165.363 173.074 165.025 173.638C164.695 174.201 164.245 174.639 163.673 174.951C163.109 175.254 162.477 175.406 161.775 175.406ZM161.775 173.82C162.104 173.82 162.412 173.742 162.698 173.586C162.992 173.421 163.226 173.178 163.4 172.858C163.573 172.537 163.66 172.147 163.66 171.688C163.66 171.003 163.478 170.479 163.114 170.115C162.758 169.742 162.321 169.556 161.801 169.556C161.281 169.556 160.843 169.742 160.488 170.115C160.141 170.479 159.968 171.003 159.968 171.688C159.968 172.372 160.137 172.901 160.475 173.274C160.821 173.638 161.255 173.82 161.775 173.82ZM169.623 175.406C169.033 175.406 168.505 175.302 168.037 175.094C167.569 174.877 167.196 174.587 166.919 174.223C166.65 173.859 166.503 173.456 166.477 173.014H168.31C168.344 173.291 168.479 173.521 168.713 173.703C168.955 173.885 169.254 173.976 169.61 173.976C169.956 173.976 170.225 173.906 170.416 173.768C170.615 173.629 170.715 173.451 170.715 173.235C170.715 173.001 170.593 172.827 170.351 172.715C170.117 172.593 169.74 172.463 169.22 172.325C168.682 172.195 168.24 172.06 167.894 171.922C167.556 171.783 167.261 171.571 167.01 171.285C166.767 170.999 166.646 170.613 166.646 170.128C166.646 169.729 166.758 169.365 166.984 169.036C167.218 168.706 167.547 168.446 167.972 168.256C168.405 168.065 168.912 167.97 169.493 167.97C170.351 167.97 171.035 168.186 171.547 168.62C172.058 169.044 172.34 169.621 172.392 170.349H170.65C170.624 170.063 170.502 169.837 170.286 169.673C170.078 169.499 169.796 169.413 169.441 169.413C169.111 169.413 168.856 169.473 168.674 169.595C168.5 169.716 168.414 169.885 168.414 170.102C168.414 170.344 168.535 170.531 168.778 170.661C169.02 170.782 169.397 170.908 169.909 171.038C170.429 171.168 170.858 171.302 171.196 171.441C171.534 171.579 171.824 171.796 172.067 172.091C172.318 172.377 172.448 172.758 172.457 173.235C172.457 173.651 172.34 174.023 172.106 174.353C171.88 174.682 171.551 174.942 171.118 175.133C170.693 175.315 170.195 175.406 169.623 175.406ZM174.757 175.38C174.427 175.38 174.154 175.28 173.938 175.081C173.73 174.873 173.626 174.617 173.626 174.314C173.626 174.01 173.73 173.759 173.938 173.56C174.154 173.352 174.427 173.248 174.757 173.248C175.077 173.248 175.342 173.352 175.55 173.56C175.758 173.759 175.862 174.01 175.862 174.314C175.862 174.617 175.758 174.873 175.55 175.081C175.342 175.28 175.077 175.38 174.757 175.38ZM178.251 167.229C177.921 167.229 177.648 167.129 177.432 166.93C177.224 166.722 177.12 166.466 177.12 166.163C177.12 165.859 177.224 165.608 177.432 165.409C177.648 165.201 177.921 165.097 178.251 165.097C178.571 165.097 178.836 165.201 179.044 165.409C179.252 165.608 179.356 165.859 179.356 166.163C179.356 166.466 179.252 166.722 179.044 166.93C178.836 167.129 178.571 167.229 178.251 167.229ZM179.148 176.472C179.148 177.269 178.948 177.841 178.55 178.188C178.16 178.543 177.596 178.721 176.86 178.721H176.054V177.174H176.574C176.851 177.174 177.046 177.117 177.159 177.005C177.271 176.901 177.328 176.727 177.328 176.485V168.087H179.148V176.472ZM182.766 169.127C183 168.797 183.321 168.524 183.728 168.308C184.144 168.082 184.616 167.97 185.145 167.97C185.76 167.97 186.315 168.121 186.809 168.425C187.312 168.728 187.706 169.161 187.992 169.725C188.287 170.279 188.434 170.925 188.434 171.662C188.434 172.398 188.287 173.053 187.992 173.625C187.706 174.188 187.312 174.626 186.809 174.938C186.315 175.25 185.76 175.406 185.145 175.406C184.616 175.406 184.148 175.297 183.741 175.081C183.342 174.864 183.017 174.591 182.766 174.262V178.721H180.946V168.087H182.766V169.127ZM186.575 171.662C186.575 171.228 186.484 170.856 186.302 170.544C186.129 170.223 185.895 169.98 185.6 169.816C185.314 169.651 185.002 169.569 184.664 169.569C184.335 169.569 184.023 169.655 183.728 169.829C183.442 169.993 183.208 170.236 183.026 170.557C182.853 170.877 182.766 171.254 182.766 171.688C182.766 172.121 182.853 172.498 183.026 172.819C183.208 173.139 183.442 173.386 183.728 173.56C184.023 173.724 184.335 173.807 184.664 173.807C185.002 173.807 185.314 173.72 185.6 173.547C185.895 173.373 186.129 173.126 186.302 172.806C186.484 172.485 186.575 172.104 186.575 171.662ZM192.577 167.97C193.115 167.97 193.587 168.078 193.994 168.295C194.402 168.503 194.722 168.776 194.956 169.114V168.087H196.789V175.341C196.789 176.008 196.655 176.602 196.386 177.122C196.118 177.65 195.715 178.066 195.177 178.37C194.64 178.682 193.99 178.838 193.227 178.838C192.205 178.838 191.364 178.599 190.705 178.123C190.055 177.646 189.687 176.996 189.6 176.173H191.407C191.503 176.502 191.706 176.762 192.018 176.953C192.339 177.152 192.725 177.252 193.175 177.252C193.704 177.252 194.133 177.091 194.462 176.771C194.792 176.459 194.956 175.982 194.956 175.341V174.223C194.722 174.561 194.397 174.842 193.981 175.068C193.574 175.293 193.106 175.406 192.577 175.406C191.971 175.406 191.416 175.25 190.913 174.938C190.411 174.626 190.012 174.188 189.717 173.625C189.431 173.053 189.288 172.398 189.288 171.662C189.288 170.934 189.431 170.288 189.717 169.725C190.012 169.161 190.406 168.728 190.9 168.425C191.403 168.121 191.962 167.97 192.577 167.97ZM194.956 171.688C194.956 171.246 194.87 170.869 194.696 170.557C194.523 170.236 194.289 169.993 193.994 169.829C193.7 169.655 193.383 169.569 193.045 169.569C192.707 169.569 192.395 169.651 192.109 169.816C191.823 169.98 191.589 170.223 191.407 170.544C191.234 170.856 191.147 171.228 191.147 171.662C191.147 172.095 191.234 172.476 191.407 172.806C191.589 173.126 191.823 173.373 192.109 173.547C192.404 173.72 192.716 173.807 193.045 173.807C193.383 173.807 193.7 173.724 193.994 173.56C194.289 173.386 194.523 173.144 194.696 172.832C194.87 172.511 194.956 172.13 194.956 171.688Z" fill="#333333"/>
<path d="M257.313 168.256C257.374 167.458 257.682 166.834 258.236 166.384C258.791 165.933 259.51 165.708 260.394 165.708C260.984 165.708 261.491 165.816 261.915 166.033C262.349 166.241 262.674 166.527 262.89 166.891C263.116 167.255 263.228 167.666 263.228 168.126C263.228 168.663 263.072 169.127 262.76 169.517C262.457 169.907 262.058 170.158 261.564 170.271V170.336C262.128 170.474 262.574 170.747 262.903 171.155C263.233 171.562 263.397 172.095 263.397 172.754C263.397 173.248 263.285 173.694 263.059 174.093C262.834 174.483 262.496 174.79 262.045 175.016C261.595 175.241 261.053 175.354 260.42 175.354C259.502 175.354 258.748 175.115 258.158 174.639C257.569 174.153 257.24 173.469 257.17 172.585H258.314C258.375 173.105 258.587 173.529 258.951 173.859C259.315 174.188 259.801 174.353 260.407 174.353C261.014 174.353 261.473 174.197 261.785 173.885C262.106 173.564 262.266 173.152 262.266 172.65C262.266 172 262.05 171.532 261.616 171.246C261.183 170.96 260.529 170.817 259.653 170.817H259.354V169.829H259.666C260.464 169.82 261.066 169.69 261.473 169.439C261.881 169.179 262.084 168.78 262.084 168.243C262.084 167.783 261.933 167.415 261.629 167.138C261.335 166.86 260.91 166.722 260.355 166.722C259.818 166.722 259.385 166.86 259.055 167.138C258.726 167.415 258.531 167.788 258.47 168.256H257.313ZM264.708 173.196V172.299L269.271 165.981H270.688V172.169H271.988V173.196H270.688V175.289H269.518V173.196H264.708ZM269.57 167.216L266.073 172.169H269.57V167.216ZM286.022 166.293V175.289H284.839V168.581L281.849 175.289H281.017L278.014 168.568V175.289H276.831V166.293H278.105L281.433 173.729L284.761 166.293H286.022ZM292.565 170.622C292.895 170.674 293.194 170.808 293.462 171.025C293.74 171.241 293.956 171.51 294.112 171.831C294.277 172.151 294.359 172.494 294.359 172.858C294.359 173.317 294.242 173.733 294.008 174.106C293.774 174.47 293.432 174.76 292.981 174.977C292.539 175.185 292.015 175.289 291.408 175.289H288.028V166.228H291.278C291.894 166.228 292.418 166.332 292.851 166.54C293.285 166.739 293.61 167.012 293.826 167.359C294.043 167.705 294.151 168.095 294.151 168.529C294.151 169.066 294.004 169.512 293.709 169.868C293.423 170.214 293.042 170.466 292.565 170.622ZM289.211 170.141H291.2C291.755 170.141 292.184 170.011 292.487 169.751C292.791 169.491 292.942 169.131 292.942 168.672C292.942 168.212 292.791 167.853 292.487 167.593C292.184 167.333 291.746 167.203 291.174 167.203H289.211V170.141ZM291.304 174.314C291.894 174.314 292.353 174.175 292.682 173.898C293.012 173.62 293.176 173.235 293.176 172.741C293.176 172.238 293.003 171.844 292.656 171.558C292.31 171.263 291.846 171.116 291.265 171.116H289.211V174.314H291.304Z" fill="#4F4F4F"/>
<path d="M86.528 188.732C87.44 188.732 88.228 188.904 88.892 189.248C89.564 189.584 90.076 190.068 90.428 190.7C90.788 191.332 90.968 192.076 90.968 192.932C90.968 193.788 90.788 194.532 90.428 195.164C90.076 195.788 89.564 196.268 88.892 196.604C88.228 196.932 87.44 197.096 86.528 197.096H83.924V188.732H86.528ZM86.528 196.196C87.608 196.196 88.432 195.912 89 195.344C89.568 194.768 89.852 193.964 89.852 192.932C89.852 191.892 89.564 191.08 88.988 190.496C88.42 189.912 87.6 189.62 86.528 189.62H85.016V196.196H86.528ZM92.9724 189.452C92.7644 189.452 92.5884 189.38 92.4444 189.236C92.3004 189.092 92.2284 188.916 92.2284 188.708C92.2284 188.5 92.3004 188.324 92.4444 188.18C92.5884 188.036 92.7644 187.964 92.9724 187.964C93.1724 187.964 93.3404 188.036 93.4764 188.18C93.6204 188.324 93.6924 188.5 93.6924 188.708C93.6924 188.916 93.6204 189.092 93.4764 189.236C93.3404 189.38 93.1724 189.452 92.9724 189.452ZM93.5004 190.52V197.096H92.4084V190.52H93.5004ZM94.9535 193.784C94.9535 193.112 95.0895 192.524 95.3615 192.02C95.6335 191.508 96.0055 191.112 96.4775 190.832C96.9575 190.552 97.4895 190.412 98.0735 190.412C98.6495 190.412 99.1495 190.536 99.5735 190.784C99.9975 191.032 100.314 191.344 100.522 191.72V190.52H101.626V197.096H100.522V195.872C100.306 196.256 99.9815 196.576 99.5495 196.832C99.1255 197.08 98.6295 197.204 98.0615 197.204C97.4775 197.204 96.9495 197.06 96.4775 196.772C96.0055 196.484 95.6335 196.08 95.3615 195.56C95.0895 195.04 94.9535 194.448 94.9535 193.784ZM100.522 193.796C100.522 193.3 100.422 192.868 100.222 192.5C100.022 192.132 99.7495 191.852 99.4055 191.66C99.0695 191.46 98.6975 191.36 98.2895 191.36C97.8815 191.36 97.5095 191.456 97.1735 191.648C96.8375 191.84 96.5695 192.12 96.3695 192.488C96.1695 192.856 96.0695 193.288 96.0695 193.784C96.0695 194.288 96.1695 194.728 96.3695 195.104C96.5695 195.472 96.8375 195.756 97.1735 195.956C97.5095 196.148 97.8815 196.244 98.2895 196.244C98.6975 196.244 99.0695 196.148 99.4055 195.956C99.7495 195.756 100.022 195.472 100.222 195.104C100.422 194.728 100.522 194.292 100.522 193.796ZM106.675 190.4C107.475 190.4 108.123 190.644 108.619 191.132C109.115 191.612 109.363 192.308 109.363 193.22V197.096H108.283V193.376C108.283 192.72 108.119 192.22 107.791 191.876C107.463 191.524 107.015 191.348 106.447 191.348C105.871 191.348 105.411 191.528 105.067 191.888C104.731 192.248 104.563 192.772 104.563 193.46V197.096H103.471V190.52H104.563V191.456C104.779 191.12 105.071 190.86 105.439 190.676C105.815 190.492 106.227 190.4 106.675 190.4ZM114.351 190.4C115.151 190.4 115.799 190.644 116.295 191.132C116.791 191.612 117.039 192.308 117.039 193.22V197.096H115.959V193.376C115.959 192.72 115.795 192.22 115.467 191.876C115.139 191.524 114.691 191.348 114.123 191.348C113.547 191.348 113.087 191.528 112.743 191.888C112.407 192.248 112.239 192.772 112.239 193.46V197.096H111.147V190.52H112.239V191.456C112.455 191.12 112.747 190.86 113.115 190.676C113.491 190.492 113.903 190.4 114.351 190.4ZM124.822 193.556C124.822 193.764 124.81 193.984 124.786 194.216H119.53C119.57 194.864 119.79 195.372 120.19 195.74C120.598 196.1 121.09 196.28 121.666 196.28C122.138 196.28 122.53 196.172 122.842 195.956C123.162 195.732 123.386 195.436 123.514 195.068H124.69C124.514 195.7 124.162 196.216 123.634 196.616C123.106 197.008 122.45 197.204 121.666 197.204C121.042 197.204 120.482 197.064 119.986 196.784C119.498 196.504 119.114 196.108 118.834 195.596C118.554 195.076 118.414 194.476 118.414 193.796C118.414 193.116 118.55 192.52 118.822 192.008C119.094 191.496 119.474 191.104 119.962 190.832C120.458 190.552 121.026 190.412 121.666 190.412C122.29 190.412 122.842 190.548 123.322 190.82C123.802 191.092 124.17 191.468 124.426 191.948C124.69 192.42 124.822 192.956 124.822 193.556ZM123.694 193.328C123.694 192.912 123.602 192.556 123.418 192.26C123.234 191.956 122.982 191.728 122.662 191.576C122.35 191.416 122.002 191.336 121.618 191.336C121.066 191.336 120.594 191.512 120.202 191.864C119.818 192.216 119.598 192.704 119.542 193.328H123.694ZM133.867 197.096L131.875 193.676H130.555V197.096H129.463V188.732H132.163C132.795 188.732 133.327 188.84 133.759 189.056C134.199 189.272 134.527 189.564 134.743 189.932C134.959 190.3 135.067 190.72 135.067 191.192C135.067 191.768 134.899 192.276 134.563 192.716C134.235 193.156 133.739 193.448 133.075 193.592L135.175 197.096H133.867ZM130.555 192.8H132.163C132.755 192.8 133.199 192.656 133.495 192.368C133.791 192.072 133.939 191.68 133.939 191.192C133.939 190.696 133.791 190.312 133.495 190.04C133.207 189.768 132.763 189.632 132.163 189.632H130.555V192.8ZM142.596 190.52V197.096H141.504V196.124C141.296 196.46 141.004 196.724 140.628 196.916C140.26 197.1 139.852 197.192 139.404 197.192C138.892 197.192 138.432 197.088 138.024 196.88C137.616 196.664 137.292 196.344 137.052 195.92C136.82 195.496 136.704 194.98 136.704 194.372V190.52H137.784V194.228C137.784 194.876 137.948 195.376 138.276 195.728C138.604 196.072 139.052 196.244 139.62 196.244C140.204 196.244 140.664 196.064 141 195.704C141.336 195.344 141.504 194.82 141.504 194.132V190.52H142.596ZM146.768 197.204C146.264 197.204 145.812 197.12 145.412 196.952C145.012 196.776 144.696 196.536 144.464 196.232C144.232 195.92 144.104 195.564 144.08 195.164H145.208C145.24 195.492 145.392 195.76 145.664 195.968C145.944 196.176 146.308 196.28 146.756 196.28C147.172 196.28 147.5 196.188 147.74 196.004C147.98 195.82 148.1 195.588 148.1 195.308C148.1 195.02 147.972 194.808 147.716 194.672C147.46 194.528 147.064 194.388 146.528 194.252C146.04 194.124 145.64 193.996 145.328 193.868C145.024 193.732 144.76 193.536 144.536 193.28C144.32 193.016 144.212 192.672 144.212 192.248C144.212 191.912 144.312 191.604 144.512 191.324C144.712 191.044 144.996 190.824 145.364 190.664C145.732 190.496 146.152 190.412 146.624 190.412C147.352 190.412 147.94 190.596 148.388 190.964C148.836 191.332 149.076 191.836 149.108 192.476H148.016C147.992 192.132 147.852 191.856 147.596 191.648C147.348 191.44 147.012 191.336 146.588 191.336C146.196 191.336 145.884 191.42 145.652 191.588C145.42 191.756 145.304 191.976 145.304 192.248C145.304 192.464 145.372 192.644 145.508 192.788C145.652 192.924 145.828 193.036 146.036 193.124C146.252 193.204 146.548 193.296 146.924 193.4C147.396 193.528 147.78 193.656 148.076 193.784C148.372 193.904 148.624 194.088 148.832 194.336C149.048 194.584 149.16 194.908 149.168 195.308C149.168 195.668 149.068 195.992 148.868 196.28C148.668 196.568 148.384 196.796 148.016 196.964C147.656 197.124 147.24 197.204 146.768 197.204ZM153.037 197.204C152.533 197.204 152.081 197.12 151.681 196.952C151.281 196.776 150.965 196.536 150.733 196.232C150.501 195.92 150.373 195.564 150.349 195.164H151.477C151.509 195.492 151.661 195.76 151.933 195.968C152.213 196.176 152.577 196.28 153.025 196.28C153.441 196.28 153.769 196.188 154.009 196.004C154.249 195.82 154.369 195.588 154.369 195.308C154.369 195.02 154.241 194.808 153.985 194.672C153.729 194.528 153.333 194.388 152.797 194.252C152.309 194.124 151.909 193.996 151.597 193.868C151.293 193.732 151.029 193.536 150.805 193.28C150.589 193.016 150.481 192.672 150.481 192.248C150.481 191.912 150.581 191.604 150.781 191.324C150.981 191.044 151.265 190.824 151.633 190.664C152.001 190.496 152.421 190.412 152.893 190.412C153.621 190.412 154.209 190.596 154.657 190.964C155.105 191.332 155.345 191.836 155.377 192.476H154.285C154.261 192.132 154.121 191.856 153.865 191.648C153.617 191.44 153.281 191.336 152.857 191.336C152.465 191.336 152.153 191.42 151.921 191.588C151.689 191.756 151.573 191.976 151.573 192.248C151.573 192.464 151.641 192.644 151.777 192.788C151.921 192.924 152.097 193.036 152.305 193.124C152.521 193.204 152.817 193.296 153.193 193.4C153.665 193.528 154.049 193.656 154.345 193.784C154.641 193.904 154.893 194.088 155.101 194.336C155.317 194.584 155.429 194.908 155.437 195.308C155.437 195.668 155.337 195.992 155.137 196.28C154.937 196.568 154.653 196.796 154.285 196.964C153.925 197.124 153.509 197.204 153.037 197.204ZM162.979 193.556C162.979 193.764 162.967 193.984 162.943 194.216H157.687C157.727 194.864 157.947 195.372 158.347 195.74C158.755 196.1 159.247 196.28 159.823 196.28C160.295 196.28 160.687 196.172 160.999 195.956C161.319 195.732 161.543 195.436 161.671 195.068H162.847C162.671 195.7 162.319 196.216 161.791 196.616C161.263 197.008 160.607 197.204 159.823 197.204C159.199 197.204 158.639 197.064 158.143 196.784C157.655 196.504 157.271 196.108 156.991 195.596C156.711 195.076 156.571 194.476 156.571 193.796C156.571 193.116 156.707 192.52 156.979 192.008C157.251 191.496 157.631 191.104 158.119 190.832C158.615 190.552 159.183 190.412 159.823 190.412C160.447 190.412 160.999 190.548 161.479 190.82C161.959 191.092 162.327 191.468 162.583 191.948C162.847 192.42 162.979 192.956 162.979 193.556ZM161.851 193.328C161.851 192.912 161.759 192.556 161.575 192.26C161.391 191.956 161.139 191.728 160.819 191.576C160.507 191.416 160.159 191.336 159.775 191.336C159.223 191.336 158.751 191.512 158.359 191.864C157.975 192.216 157.755 192.704 157.699 193.328H161.851ZM165.512 188.216V197.096H164.42V188.216H165.512ZM168.465 188.216V197.096H167.373V188.216H168.465Z" fill="#828282"/>
<path d="M62 173.496V195.442C62 196.728 61.4943 197.96 60.5941 198.869C59.6939 199.778 58.473 200.289 57.2 200.289H34.8C33.527 200.289 32.3061 199.778 31.4059 198.869C30.5057 197.96 30 196.728 30 195.442V163.135C30 161.849 30.5057 160.617 31.4059 159.708C32.3061 158.799 33.527 158.289 34.8 158.289H46.5C47.3484 158.289 46.337 158.629 46.937 159.235L61.063 173.496C61.6628 174.102 61.9999 172.64 62 173.496Z" fill="#2F80ED" stroke="#2F80ED" stroke-width="2" stroke-linejoin="round"/>
<path d="M47 158.289C47 162.913 47 170.131 47 170.131C47 170.968 47.3327 171.771 47.9249 172.364C48.5171 172.956 49.3204 173.289 50.1579 173.289H62" fill="#56CCF2"/>
<path d="M47 158.289C47 162.913 47 170.131 47 170.131C47 170.968 47.3327 171.771 47.9249 172.364C48.5171 172.956 49.3204 173.289 50.1579 173.289H62L47 158.289Z" stroke="#56CCF2" stroke-width="2" stroke-linecap="round" stroke-linejoin="round"/>
<path d="M44.2971 188.501V193.401C44.2971 194.081 44.1004 194.611 43.7071 194.991C43.3138 195.364 42.7871 195.551 42.1271 195.551C41.4604 195.551 40.9204 195.358 40.5071 194.971C40.1004 194.584 39.8971 194.044 39.8971 193.351H41.2971C41.3038 193.651 41.3738 193.884 41.5071 194.051C41.6471 194.218 41.8471 194.301 42.1071 194.301C42.3604 194.301 42.5538 194.221 42.6871 194.061C42.8204 193.901 42.8871 193.681 42.8871 193.401V188.501H44.2971ZM51.0202 190.661C51.0202 191.034 50.9302 191.384 50.7502 191.711C50.5769 192.038 50.3002 192.301 49.9202 192.501C49.5469 192.701 49.0736 192.801 48.5002 192.801H47.3302V195.481H45.9302V188.501H48.5002C49.0402 188.501 49.5002 188.594 49.8802 188.781C50.2602 188.968 50.5436 189.224 50.7302 189.551C50.9236 189.878 51.0202 190.248 51.0202 190.661ZM48.4402 191.671C48.8269 191.671 49.1136 191.584 49.3002 191.411C49.4869 191.231 49.5802 190.981 49.5802 190.661C49.5802 189.981 49.2002 189.641 48.4402 189.641H47.3302V191.671H48.4402ZM56.8742 190.601C56.7142 190.308 56.4942 190.084 56.2142 189.931C55.9342 189.778 55.6076 189.701 55.2342 189.701C54.8209 189.701 54.4542 189.794 54.1342 189.981C53.8142 190.168 53.5642 190.434 53.3842 190.781C53.2042 191.128 53.1142 191.528 53.1142 191.981C53.1142 192.448 53.2042 192.854 53.3842 193.201C53.5709 193.548 53.8276 193.814 54.1542 194.001C54.4809 194.188 54.8609 194.281 55.2942 194.281C55.8276 194.281 56.2642 194.141 56.6042 193.861C56.9442 193.574 57.1676 193.178 57.2742 192.671H54.8742V191.601H58.6542V192.821C58.5609 193.308 58.3609 193.758 58.0542 194.171C57.7476 194.584 57.3509 194.918 56.8642 195.171C56.3842 195.418 55.8442 195.541 55.2442 195.541C54.5709 195.541 53.9609 195.391 53.4142 195.091C52.8742 194.784 52.4476 194.361 52.1342 193.821C51.8276 193.281 51.6742 192.668 51.6742 191.981C51.6742 191.294 51.8276 190.681 52.1342 190.141C52.4476 189.594 52.8742 189.171 53.4142 188.871C53.9609 188.564 54.5676 188.411 55.2342 188.411C56.0209 188.411 56.7042 188.604 57.2842 188.991C57.8642 189.371 58.2642 189.908 58.4842 190.601H56.8742Z" fill="#F2F2F2"/>
<path d="M82.7627 242.546C82.7627 241.654 82.962 240.856 83.3607 240.154C83.768 239.444 84.3183 238.893 85.0117 238.503C85.7137 238.105 86.498 237.905 87.3647 237.905C88.3787 237.905 89.267 238.165 90.0297 238.685C90.7923 239.205 91.3253 239.925 91.6287 240.843H89.5357C89.3277 240.41 89.033 240.085 88.6517 239.868C88.279 239.652 87.8457 239.543 87.3517 239.543C86.823 239.543 86.3507 239.669 85.9347 239.92C85.5273 240.163 85.2067 240.51 84.9727 240.96C84.7473 241.411 84.6347 241.94 84.6347 242.546C84.6347 243.144 84.7473 243.673 84.9727 244.132C85.2067 244.583 85.5273 244.934 85.9347 245.185C86.3507 245.428 86.823 245.549 87.3517 245.549C87.8457 245.549 88.279 245.441 88.6517 245.224C89.033 244.999 89.3277 244.67 89.5357 244.236H91.6287C91.3253 245.164 90.7923 245.887 90.0297 246.407C89.2757 246.919 88.3873 247.174 87.3647 247.174C86.498 247.174 85.7137 246.979 85.0117 246.589C84.3183 246.191 83.768 245.64 83.3607 244.938C82.962 244.236 82.7627 243.439 82.7627 242.546ZM96.3812 247.213C95.6879 247.213 95.0639 247.062 94.5092 246.758C93.9545 246.446 93.5169 246.009 93.1962 245.445C92.8842 244.882 92.7282 244.232 92.7282 243.495C92.7282 242.759 92.8885 242.109 93.2092 241.545C93.5385 240.982 93.9849 240.549 94.5482 240.245C95.1115 239.933 95.7399 239.777 96.4332 239.777C97.1265 239.777 97.7549 239.933 98.3182 240.245C98.8815 240.549 99.3235 240.982 99.6442 241.545C99.9735 242.109 100.138 242.759 100.138 243.495C100.138 244.232 99.9692 244.882 99.6312 245.445C99.3019 246.009 98.8512 246.446 98.2792 246.758C97.7159 247.062 97.0832 247.213 96.3812 247.213ZM96.3812 245.627C96.7105 245.627 97.0182 245.549 97.3042 245.393C97.5989 245.229 97.8329 244.986 98.0062 244.665C98.1795 244.345 98.2662 243.955 98.2662 243.495C98.2662 242.811 98.0842 242.286 97.7202 241.922C97.3649 241.55 96.9272 241.363 96.4072 241.363C95.8872 241.363 95.4495 241.55 95.0942 241.922C94.7475 242.286 94.5742 242.811 94.5742 243.495C94.5742 244.18 94.7432 244.709 95.0812 245.081C95.4279 245.445 95.8612 245.627 96.3812 245.627ZM105.464 239.79C106.322 239.79 107.016 240.063 107.544 240.609C108.073 241.147 108.337 241.901 108.337 242.871V247.096H106.517V243.118C106.517 242.546 106.374 242.109 106.088 241.805C105.802 241.493 105.412 241.337 104.918 241.337C104.416 241.337 104.017 241.493 103.722 241.805C103.436 242.109 103.293 242.546 103.293 243.118V247.096H101.473V239.894H103.293V240.791C103.536 240.479 103.844 240.237 104.216 240.063C104.598 239.881 105.014 239.79 105.464 239.79ZM112.187 241.389V244.873C112.187 245.116 112.243 245.294 112.356 245.406C112.477 245.51 112.677 245.562 112.954 245.562H113.799V247.096H112.655C111.121 247.096 110.354 246.351 110.354 244.86V241.389H109.496V239.894H110.354V238.113H112.187V239.894H113.799V241.389H112.187ZM114.64 243.469C114.64 242.741 114.783 242.096 115.069 241.532C115.364 240.969 115.758 240.536 116.252 240.232C116.755 239.929 117.314 239.777 117.929 239.777C118.466 239.777 118.934 239.886 119.333 240.102C119.74 240.319 120.065 240.592 120.308 240.921V239.894H122.141V247.096H120.308V246.043C120.074 246.381 119.749 246.663 119.333 246.888C118.926 247.105 118.453 247.213 117.916 247.213C117.309 247.213 116.755 247.057 116.252 246.745C115.758 246.433 115.364 245.996 115.069 245.432C114.783 244.86 114.64 244.206 114.64 243.469ZM120.308 243.495C120.308 243.053 120.221 242.676 120.048 242.364C119.875 242.044 119.641 241.801 119.346 241.636C119.051 241.463 118.735 241.376 118.397 241.376C118.059 241.376 117.747 241.459 117.461 241.623C117.175 241.788 116.941 242.031 116.759 242.351C116.586 242.663 116.499 243.036 116.499 243.469C116.499 243.903 116.586 244.284 116.759 244.613C116.941 244.934 117.175 245.181 117.461 245.354C117.756 245.528 118.068 245.614 118.397 245.614C118.735 245.614 119.051 245.532 119.346 245.367C119.641 245.194 119.875 244.951 120.048 244.639C120.221 244.319 120.308 243.937 120.308 243.495ZM123.451 243.495C123.451 242.75 123.602 242.1 123.906 241.545C124.209 240.982 124.629 240.549 125.167 240.245C125.704 239.933 126.319 239.777 127.013 239.777C127.905 239.777 128.642 240.003 129.223 240.453C129.812 240.895 130.206 241.519 130.406 242.325H128.443C128.339 242.013 128.161 241.771 127.91 241.597C127.667 241.415 127.364 241.324 127 241.324C126.48 241.324 126.068 241.515 125.765 241.896C125.461 242.269 125.31 242.802 125.31 243.495C125.31 244.18 125.461 244.713 125.765 245.094C126.068 245.467 126.48 245.653 127 245.653C127.736 245.653 128.217 245.324 128.443 244.665H130.406C130.206 245.445 129.812 246.065 129.223 246.524C128.633 246.984 127.897 247.213 127.013 247.213C126.319 247.213 125.704 247.062 125.167 246.758C124.629 246.446 124.209 246.013 123.906 245.458C123.602 244.895 123.451 244.241 123.451 243.495ZM133.858 241.389V244.873C133.858 245.116 133.914 245.294 134.027 245.406C134.148 245.51 134.348 245.562 134.625 245.562H135.47V247.096H134.326C132.792 247.096 132.025 246.351 132.025 244.86V241.389H131.167V239.894H132.025V238.113H133.858V239.894H135.47V241.389H133.858ZM142.317 241.688V243.222H136.805V241.688H142.317ZM143.89 243.469C143.89 242.741 144.033 242.096 144.319 241.532C144.614 240.969 145.012 240.536 145.515 240.232C146.018 239.929 146.577 239.777 147.192 239.777C147.66 239.777 148.106 239.881 148.531 240.089C148.956 240.289 149.294 240.557 149.545 240.895V237.476H151.391V247.096H149.545V246.03C149.32 246.386 149.003 246.672 148.596 246.888C148.189 247.105 147.716 247.213 147.179 247.213C146.572 247.213 146.018 247.057 145.515 246.745C145.012 246.433 144.614 245.996 144.319 245.432C144.033 244.86 143.89 244.206 143.89 243.469ZM149.558 243.495C149.558 243.053 149.471 242.676 149.298 242.364C149.125 242.044 148.891 241.801 148.596 241.636C148.301 241.463 147.985 241.376 147.647 241.376C147.309 241.376 146.997 241.459 146.711 241.623C146.425 241.788 146.191 242.031 146.009 242.351C145.836 242.663 145.749 243.036 145.749 243.469C145.749 243.903 145.836 244.284 146.009 244.613C146.191 244.934 146.425 245.181 146.711 245.354C147.006 245.528 147.318 245.614 147.647 245.614C147.985 245.614 148.301 245.532 148.596 245.367C148.891 245.194 149.125 244.951 149.298 244.639C149.471 244.319 149.558 243.937 149.558 243.495ZM152.701 243.469C152.701 242.741 152.844 242.096 153.13 241.532C153.424 240.969 153.819 240.536 154.313 240.232C154.815 239.929 155.374 239.777 155.99 239.777C156.527 239.777 156.995 239.886 157.394 240.102C157.801 240.319 158.126 240.592 158.369 240.921V239.894H160.202V247.096H158.369V246.043C158.135 246.381 157.81 246.663 157.394 246.888C156.986 247.105 156.514 247.213 155.977 247.213C155.37 247.213 154.815 247.057 154.313 246.745C153.819 246.433 153.424 245.996 153.13 245.432C152.844 244.86 152.701 244.206 152.701 243.469ZM158.369 243.495C158.369 243.053 158.282 242.676 158.109 242.364C157.935 242.044 157.701 241.801 157.407 241.636C157.112 241.463 156.796 241.376 156.458 241.376C156.12 241.376 155.808 241.459 155.522 241.623C155.236 241.788 155.002 242.031 154.82 242.351C154.646 242.663 154.56 243.036 154.56 243.469C154.56 243.903 154.646 244.284 154.82 244.613C155.002 244.934 155.236 245.181 155.522 245.354C155.816 245.528 156.128 245.614 156.458 245.614C156.796 245.614 157.112 245.532 157.407 245.367C157.701 245.194 157.935 244.951 158.109 244.639C158.282 244.319 158.369 243.937 158.369 243.495ZM164.098 241.389V244.873C164.098 245.116 164.154 245.294 164.267 245.406C164.388 245.51 164.588 245.562 164.865 245.562H165.71V247.096H164.566C163.032 247.096 162.265 246.351 162.265 244.86V241.389H161.407V239.894H162.265V238.113H164.098V239.894H165.71V241.389H164.098ZM166.551 243.469C166.551 242.741 166.694 242.096 166.98 241.532C167.275 240.969 167.669 240.536 168.163 240.232C168.666 239.929 169.225 239.777 169.84 239.777C170.377 239.777 170.845 239.886 171.244 240.102C171.651 240.319 171.976 240.592 172.219 240.921V239.894H174.052V247.096H172.219V246.043C171.985 246.381 171.66 246.663 171.244 246.888C170.837 247.105 170.364 247.213 169.827 247.213C169.22 247.213 168.666 247.057 168.163 246.745C167.669 246.433 167.275 245.996 166.98 245.432C166.694 244.86 166.551 244.206 166.551 243.469ZM172.219 243.495C172.219 243.053 172.132 242.676 171.959 242.364C171.786 242.044 171.552 241.801 171.257 241.636C170.962 241.463 170.646 241.376 170.308 241.376C169.97 241.376 169.658 241.459 169.372 241.623C169.086 241.788 168.852 242.031 168.67 242.351C168.497 242.663 168.41 243.036 168.41 243.469C168.41 243.903 168.497 244.284 168.67 244.613C168.852 244.934 169.086 245.181 169.372 245.354C169.667 245.528 169.979 245.614 170.308 245.614C170.646 245.614 170.962 245.532 171.257 245.367C171.552 245.194 171.786 244.951 171.959 244.639C172.132 244.319 172.219 243.937 172.219 243.495ZM176.636 247.187C176.306 247.187 176.033 247.088 175.817 246.888C175.609 246.68 175.505 246.425 175.505 246.121C175.505 245.818 175.609 245.567 175.817 245.367C176.033 245.159 176.306 245.055 176.636 245.055C176.956 245.055 177.221 245.159 177.429 245.367C177.637 245.567 177.741 245.818 177.741 246.121C177.741 246.425 177.637 246.68 177.429 246.888C177.221 247.088 176.956 247.187 176.636 247.187ZM178.739 243.495C178.739 242.75 178.89 242.1 179.194 241.545C179.497 240.982 179.917 240.549 180.455 240.245C180.992 239.933 181.607 239.777 182.301 239.777C183.193 239.777 183.93 240.003 184.511 240.453C185.1 240.895 185.494 241.519 185.694 242.325H183.731C183.627 242.013 183.449 241.771 183.198 241.597C182.955 241.415 182.652 241.324 182.288 241.324C181.768 241.324 181.356 241.515 181.053 241.896C180.749 242.269 180.598 242.802 180.598 243.495C180.598 244.18 180.749 244.713 181.053 245.094C181.356 245.467 181.768 245.653 182.288 245.653C183.024 245.653 183.505 245.324 183.731 244.665H185.694C185.494 245.445 185.1 246.065 184.511 246.524C183.921 246.984 183.185 247.213 182.301 247.213C181.607 247.213 180.992 247.062 180.455 246.758C179.917 246.446 179.497 246.013 179.194 245.458C178.89 244.895 178.739 244.241 178.739 243.495ZM189.783 247.213C189.194 247.213 188.665 247.109 188.197 246.901C187.729 246.685 187.356 246.394 187.079 246.03C186.81 245.666 186.663 245.263 186.637 244.821H188.47C188.505 245.099 188.639 245.328 188.873 245.51C189.116 245.692 189.415 245.783 189.77 245.783C190.117 245.783 190.385 245.714 190.576 245.575C190.775 245.437 190.875 245.259 190.875 245.042C190.875 244.808 190.754 244.635 190.511 244.522C190.277 244.401 189.9 244.271 189.38 244.132C188.843 244.002 188.401 243.868 188.054 243.729C187.716 243.591 187.421 243.378 187.17 243.092C186.927 242.806 186.806 242.421 186.806 241.935C186.806 241.537 186.919 241.173 187.144 240.843C187.378 240.514 187.707 240.254 188.132 240.063C188.565 239.873 189.072 239.777 189.653 239.777C190.511 239.777 191.196 239.994 191.707 240.427C192.218 240.852 192.5 241.428 192.552 242.156H190.81C190.784 241.87 190.663 241.645 190.446 241.48C190.238 241.307 189.956 241.22 189.601 241.22C189.272 241.22 189.016 241.281 188.834 241.402C188.661 241.524 188.574 241.693 188.574 241.909C188.574 242.152 188.695 242.338 188.938 242.468C189.181 242.59 189.558 242.715 190.069 242.845C190.589 242.975 191.018 243.11 191.356 243.248C191.694 243.387 191.984 243.604 192.227 243.898C192.478 244.184 192.608 244.566 192.617 245.042C192.617 245.458 192.5 245.831 192.266 246.16C192.041 246.49 191.711 246.75 191.278 246.94C190.853 247.122 190.355 247.213 189.783 247.213ZM197.114 245.419L198.934 239.894H200.871L198.206 247.096H195.996L193.344 239.894H195.294L197.114 245.419Z" fill="#333333"/>
<path d="M268.694 238.776V237.697H271.138V247.096H269.942V238.776H268.694ZM286.022 238.1V247.096H284.839V240.388L281.849 247.096H281.017L278.014 240.375V247.096H276.831V238.1H278.105L281.433 245.536L284.761 238.1H286.022ZM292.565 242.429C292.895 242.481 293.194 242.616 293.462 242.832C293.74 243.049 293.956 243.318 294.112 243.638C294.277 243.959 294.359 244.301 294.359 244.665C294.359 245.125 294.242 245.541 294.008 245.913C293.774 246.277 293.432 246.568 292.981 246.784C292.539 246.992 292.015 247.096 291.408 247.096H288.028V238.035H291.278C291.894 238.035 292.418 238.139 292.851 238.347C293.285 238.547 293.61 238.82 293.826 239.166C294.043 239.513 294.151 239.903 294.151 240.336C294.151 240.874 294.004 241.32 293.709 241.675C293.423 242.022 293.042 242.273 292.565 242.429ZM289.211 241.948H291.2C291.755 241.948 292.184 241.818 292.487 241.558C292.791 241.298 292.942 240.939 292.942 240.479C292.942 240.02 292.791 239.66 292.487 239.4C292.184 239.14 291.746 239.01 291.174 239.01H289.211V241.948ZM291.304 246.121C291.894 246.121 292.353 245.983 292.682 245.705C293.012 245.428 293.176 245.042 293.176 244.548C293.176 244.046 293.003 243.651 292.656 243.365C292.31 243.071 291.846 242.923 291.265 242.923H289.211V246.121H291.304Z" fill="#4F4F4F"/>
<path d="M92.408 260.6V268.904H91.316V262.712L88.556 268.904H87.788L85.016 262.7V268.904H83.924V260.6H85.1L88.172 267.464L91.244 260.6H92.408ZM93.8519 265.592C93.8519 264.92 93.9879 264.332 94.2599 263.828C94.5319 263.316 94.9039 262.92 95.3759 262.64C95.8559 262.36 96.3879 262.22 96.9719 262.22C97.5479 262.22 98.0479 262.344 98.4719 262.592C98.8959 262.84 99.2119 263.152 99.4199 263.528V262.328H100.524V268.904H99.4199V267.68C99.2039 268.064 98.8799 268.384 98.4479 268.64C98.0239 268.888 97.5279 269.012 96.9599 269.012C96.3759 269.012 95.8479 268.868 95.3759 268.58C94.9039 268.292 94.5319 267.888 94.2599 267.368C93.9879 266.848 93.8519 266.256 93.8519 265.592ZM99.4199 265.604C99.4199 265.108 99.3199 264.676 99.1199 264.308C98.9199 263.94 98.6479 263.66 98.3039 263.468C97.9679 263.268 97.5959 263.168 97.1879 263.168C96.7799 263.168 96.4079 263.264 96.0719 263.456C95.7359 263.648 95.4679 263.928 95.2679 264.296C95.0679 264.664 94.9679 265.096 94.9679 265.592C94.9679 266.096 95.0679 266.536 95.2679 266.912C95.4679 267.28 95.7359 267.564 96.0719 267.764C96.4079 267.956 96.7799 268.052 97.1879 268.052C97.5959 268.052 97.9679 267.956 98.3039 267.764C98.6479 267.564 98.9199 267.28 99.1199 266.912C99.3199 266.536 99.4199 266.1 99.4199 265.604ZM103.461 263.396C103.653 263.02 103.925 262.728 104.277 262.52C104.637 262.312 105.073 262.208 105.585 262.208V263.336H105.297C104.073 263.336 103.461 264 103.461 265.328V268.904H102.369V262.328H103.461V263.396ZM109.294 267.896L111.334 262.328H112.498L109.918 268.904H108.646L106.066 262.328H107.242L109.294 267.896ZM114.136 261.26C113.928 261.26 113.752 261.188 113.608 261.044C113.464 260.9 113.392 260.724 113.392 260.516C113.392 260.308 113.464 260.132 113.608 259.988C113.752 259.844 113.928 259.772 114.136 259.772C114.336 259.772 114.504 259.844 114.64 259.988C114.784 260.132 114.856 260.308 114.856 260.516C114.856 260.724 114.784 260.9 114.64 261.044C114.504 261.188 114.336 261.26 114.136 261.26ZM114.664 262.328V268.904H113.572V262.328H114.664ZM119.73 262.208C120.53 262.208 121.178 262.452 121.674 262.94C122.17 263.42 122.418 264.116 122.418 265.028V268.904H121.338V265.184C121.338 264.528 121.174 264.028 120.846 263.684C120.518 263.332 120.07 263.156 119.502 263.156C118.926 263.156 118.466 263.336 118.122 263.696C117.786 264.056 117.618 264.58 117.618 265.268V268.904H116.526V262.328H117.618V263.264C117.834 262.928 118.126 262.668 118.494 262.484C118.87 262.3 119.282 262.208 119.73 262.208ZM135.885 260.6V268.904H134.793V262.712L132.033 268.904H131.265L128.493 262.7V268.904H127.401V260.6H128.577L131.649 267.464L134.721 260.6H135.885ZM137.329 265.604C137.329 264.924 137.465 264.332 137.737 263.828C138.009 263.316 138.385 262.92 138.865 262.64C139.353 262.36 139.909 262.22 140.533 262.22C141.341 262.22 142.005 262.416 142.525 262.808C143.053 263.2 143.401 263.744 143.569 264.44H142.393C142.281 264.04 142.061 263.724 141.733 263.492C141.413 263.26 141.013 263.144 140.533 263.144C139.909 263.144 139.405 263.36 139.021 263.792C138.637 264.216 138.445 264.82 138.445 265.604C138.445 266.396 138.637 267.008 139.021 267.44C139.405 267.872 139.909 268.088 140.533 268.088C141.013 268.088 141.413 267.976 141.733 267.752C142.053 267.528 142.273 267.208 142.393 266.792H143.569C143.393 267.464 143.041 268.004 142.513 268.412C141.985 268.812 141.325 269.012 140.533 269.012C139.909 269.012 139.353 268.872 138.865 268.592C138.385 268.312 138.009 267.916 137.737 267.404C137.465 266.892 137.329 266.292 137.329 265.604ZM149.562 268.904L146.118 265.088V268.904H145.026V260.54H146.118V264.416L149.574 260.54H150.954L147.162 264.728L150.99 268.904H149.562ZM152.773 261.26C152.565 261.26 152.389 261.188 152.245 261.044C152.101 260.9 152.029 260.724 152.029 260.516C152.029 260.308 152.101 260.132 152.245 259.988C152.389 259.844 152.565 259.772 152.773 259.772C152.973 259.772 153.141 259.844 153.277 259.988C153.421 260.132 153.493 260.308 153.493 260.516C153.493 260.724 153.421 260.9 153.277 261.044C153.141 261.188 152.973 261.26 152.773 261.26ZM153.301 262.328V268.904H152.209V262.328H153.301ZM158.366 262.208C159.166 262.208 159.814 262.452 160.31 262.94C160.806 263.42 161.054 264.116 161.054 265.028V268.904H159.974V265.184C159.974 264.528 159.81 264.028 159.482 263.684C159.154 263.332 158.706 263.156 158.138 263.156C157.562 263.156 157.102 263.336 156.758 263.696C156.422 264.056 156.254 264.58 156.254 265.268V268.904H155.162V262.328H156.254V263.264C156.47 262.928 156.762 262.668 157.13 262.484C157.506 262.3 157.918 262.208 158.366 262.208ZM166.042 262.208C166.842 262.208 167.49 262.452 167.986 262.94C168.482 263.42 168.73 264.116 168.73 265.028V268.904H167.65V265.184C167.65 264.528 167.486 264.028 167.158 263.684C166.83 263.332 166.382 263.156 165.814 263.156C165.238 263.156 164.778 263.336 164.434 263.696C164.098 264.056 163.93 264.58 163.93 265.268V268.904H162.838V262.328H163.93V263.264C164.146 262.928 164.438 262.668 164.806 262.484C165.182 262.3 165.594 262.208 166.042 262.208ZM176.514 265.364C176.514 265.572 176.502 265.792 176.478 266.024H171.222C171.262 266.672 171.482 267.18 171.882 267.548C172.29 267.908 172.782 268.088 173.358 268.088C173.83 268.088 174.222 267.98 174.534 267.764C174.854 267.54 175.078 267.244 175.206 266.876H176.382C176.206 267.508 175.854 268.024 175.326 268.424C174.798 268.816 174.142 269.012 173.358 269.012C172.734 269.012 172.174 268.872 171.678 268.592C171.19 268.312 170.806 267.916 170.526 267.404C170.246 266.884 170.106 266.284 170.106 265.604C170.106 264.924 170.242 264.328 170.514 263.816C170.786 263.304 171.166 262.912 171.654 262.64C172.15 262.36 172.718 262.22 173.358 262.22C173.982 262.22 174.534 262.356 175.014 262.628C175.494 262.9 175.862 263.276 176.118 263.756C176.382 264.228 176.514 264.764 176.514 265.364ZM175.386 265.136C175.386 264.72 175.294 264.364 175.11 264.068C174.926 263.764 174.674 263.536 174.354 263.384C174.042 263.224 173.694 263.144 173.31 263.144C172.758 263.144 172.286 263.32 171.894 263.672C171.51 264.024 171.29 264.512 171.234 265.136H175.386ZM183.619 262.328L179.659 272H178.531L179.827 268.832L177.175 262.328H178.387L180.451 267.656L182.491 262.328H183.619Z" fill="#828282"/>
<path d="M62 245.304V267.25C62 268.535 61.4943 269.768 60.5941 270.677C59.6939 271.586 58.473 272.096 57.2 272.096H34.8C33.527 272.096 32.3061 271.586 31.4059 270.677C30.5057 269.768 30 268.535 30 267.25V234.942C30 233.657 30.5057 232.424 31.4059 231.516C32.3061 230.607 33.527 230.096 34.8 230.096H46.5C47.3484 230.096 46.337 230.437 46.937 231.042L61.063 245.304C61.6628 245.91 61.9999 244.447 62 245.304Z" fill="#F2994A" stroke="#F2994A" stroke-width="2" stroke-linejoin="round"/>
<path d="M47 230.096C47 234.721 47 241.938 47 241.938C47 242.776 47.3327 243.579 47.9249 244.171C48.5171 244.763 49.3204 245.096 50.1579 245.096H62" fill="#F2C94C"/>
<path d="M47 230.096C47 234.721 47 241.938 47 241.938C47 242.776 47.3327 243.579 47.9249 244.171C48.5171 244.763 49.3204 245.096 50.1579 245.096H62L47 230.096Z" stroke="#F2C94C" stroke-width="2" stroke-linecap="round" stroke-linejoin="round"/>
<path d="M38.4711 263.789C38.4711 263.102 38.6244 262.489 38.9311 261.949C39.2444 261.402 39.6678 260.979 40.2011 260.679C40.7411 260.372 41.3444 260.219 42.0111 260.219C42.7911 260.219 43.4744 260.419 44.0611 260.819C44.6478 261.219 45.0578 261.772 45.2911 262.479H43.6811C43.5211 262.145 43.2944 261.895 43.0011 261.729C42.7144 261.562 42.3811 261.479 42.0011 261.479C41.5944 261.479 41.2311 261.575 40.9111 261.769C40.5978 261.955 40.3511 262.222 40.1711 262.569C39.9978 262.915 39.9111 263.322 39.9111 263.789C39.9111 264.249 39.9978 264.655 40.1711 265.009C40.3511 265.355 40.5978 265.625 40.9111 265.819C41.2311 266.005 41.5944 266.099 42.0011 266.099C42.3811 266.099 42.7144 266.015 43.0011 265.849C43.2944 265.675 43.5211 265.422 43.6811 265.089H45.2911C45.0578 265.802 44.6478 266.359 44.0611 266.759C43.4811 267.152 42.7978 267.349 42.0111 267.349C41.3444 267.349 40.7411 267.199 40.2011 266.899C39.6678 266.592 39.2444 266.169 38.9311 265.629C38.6244 265.089 38.4711 264.475 38.4711 263.789ZM48.8969 267.359C48.4102 267.359 47.9702 267.275 47.5769 267.109C47.1902 266.942 46.8835 266.702 46.6569 266.389C46.4302 266.075 46.3135 265.705 46.3069 265.279H47.8069C47.8269 265.565 47.9269 265.792 48.1069 265.959C48.2935 266.125 48.5469 266.209 48.8669 266.209C49.1935 266.209 49.4502 266.132 49.6369 265.979C49.8235 265.819 49.9169 265.612 49.9169 265.359C49.9169 265.152 49.8535 264.982 49.7269 264.849C49.6002 264.715 49.4402 264.612 49.2469 264.539C49.0602 264.459 48.8002 264.372 48.4669 264.279C48.0135 264.145 47.6435 264.015 47.3569 263.889C47.0769 263.755 46.8335 263.559 46.6269 263.299C46.4269 263.032 46.3269 262.679 46.3269 262.239C46.3269 261.825 46.4302 261.465 46.6369 261.159C46.8435 260.852 47.1335 260.619 47.5069 260.459C47.8802 260.292 48.3069 260.209 48.7869 260.209C49.5069 260.209 50.0902 260.385 50.5369 260.739C50.9902 261.085 51.2402 261.572 51.2869 262.199H49.7469C49.7335 261.959 49.6302 261.762 49.4369 261.609C49.2502 261.449 49.0002 261.369 48.6869 261.369C48.4135 261.369 48.1935 261.439 48.0269 261.579C47.8669 261.719 47.7869 261.922 47.7869 262.189C47.7869 262.375 47.8469 262.532 47.9669 262.659C48.0935 262.779 48.2469 262.879 48.4269 262.959C48.6135 263.032 48.8735 263.119 49.2069 263.219C49.6602 263.352 50.0302 263.485 50.3169 263.619C50.6035 263.752 50.8502 263.952 51.0569 264.219C51.2635 264.485 51.3669 264.835 51.3669 265.269C51.3669 265.642 51.2702 265.989 51.0769 266.309C50.8835 266.629 50.6002 266.885 50.2269 267.079C49.8535 267.265 49.4102 267.359 48.8969 267.359ZM58.8506 260.309L56.2906 267.289H54.5906L52.0306 260.309H53.5306L55.4506 265.859L57.3606 260.309H58.8506Z" fill="#F2F2F2"/>
<path d="M84.9987 309.83V315.446C84.9987 316.061 85.159 316.533 85.4797 316.863C85.8003 317.183 86.251 317.344 86.8317 317.344C87.421 317.344 87.876 317.183 88.1967 316.863C88.5173 316.533 88.6777 316.061 88.6777 315.446V309.83H90.5107V315.433C90.5107 316.204 90.3417 316.858 90.0037 317.396C89.6743 317.924 89.228 318.323 88.6647 318.592C88.11 318.86 87.4903 318.995 86.8057 318.995C86.1297 318.995 85.5143 318.86 84.9597 318.592C84.4137 318.323 83.9803 317.924 83.6597 317.396C83.339 316.858 83.1787 316.204 83.1787 315.433V309.83H84.9987ZM95.0251 319.021C94.4358 319.021 93.9071 318.917 93.4391 318.709C92.9711 318.492 92.5985 318.202 92.3211 317.838C92.0525 317.474 91.9051 317.071 91.8791 316.629H93.7121C93.7468 316.906 93.8811 317.136 94.1151 317.318C94.3578 317.5 94.6568 317.591 95.0121 317.591C95.3588 317.591 95.6275 317.521 95.8181 317.383C96.0175 317.244 96.1171 317.066 96.1171 316.85C96.1171 316.616 95.9958 316.442 95.7531 316.33C95.5191 316.208 95.1421 316.078 94.6221 315.94C94.0848 315.81 93.6428 315.675 93.2961 315.537C92.9581 315.398 92.6635 315.186 92.4121 314.9C92.1695 314.614 92.0481 314.228 92.0481 313.743C92.0481 313.344 92.1608 312.98 92.3861 312.651C92.6201 312.321 92.9495 312.061 93.3741 311.871C93.8075 311.68 94.3145 311.585 94.8951 311.585C95.7531 311.585 96.4378 311.801 96.9491 312.235C97.4605 312.659 97.7421 313.236 97.7941 313.964H96.0521C96.0261 313.678 95.9048 313.452 95.6881 313.288C95.4801 313.114 95.1985 313.028 94.8431 313.028C94.5138 313.028 94.2581 313.088 94.0761 313.21C93.9028 313.331 93.8161 313.5 93.8161 313.717C93.8161 313.959 93.9375 314.146 94.1801 314.276C94.4228 314.397 94.7998 314.523 95.3111 314.653C95.8311 314.783 96.2601 314.917 96.5981 315.056C96.9361 315.194 97.2265 315.411 97.4691 315.706C97.7205 315.992 97.8505 316.373 97.8591 316.85C97.8591 317.266 97.7421 317.638 97.5081 317.968C97.2828 318.297 96.9535 318.557 96.5201 318.748C96.0955 318.93 95.5971 319.021 95.0251 319.021ZM106.048 315.147C106.048 315.407 106.031 315.641 105.996 315.849H100.731C100.774 316.369 100.956 316.776 101.277 317.071C101.598 317.365 101.992 317.513 102.46 317.513C103.136 317.513 103.617 317.222 103.903 316.642H105.866C105.658 317.335 105.259 317.907 104.67 318.358C104.081 318.8 103.357 319.021 102.499 319.021C101.806 319.021 101.182 318.869 100.627 318.566C100.081 318.254 99.6521 317.816 99.3401 317.253C99.0368 316.689 98.8851 316.039 98.8851 315.303C98.8851 314.557 99.0368 313.903 99.3401 313.34C99.6434 312.776 100.068 312.343 100.614 312.04C101.16 311.736 101.788 311.585 102.499 311.585C103.184 311.585 103.795 311.732 104.332 312.027C104.878 312.321 105.298 312.742 105.593 313.288C105.896 313.825 106.048 314.445 106.048 315.147ZM104.163 314.627C104.154 314.159 103.985 313.786 103.656 313.509C103.327 313.223 102.924 313.08 102.447 313.08C101.996 313.08 101.615 313.218 101.303 313.496C101 313.764 100.813 314.141 100.744 314.627H104.163ZM109.197 312.82C109.431 312.438 109.734 312.139 110.107 311.923C110.488 311.706 110.921 311.598 111.407 311.598V313.509H110.926C110.354 313.509 109.92 313.643 109.626 313.912C109.34 314.18 109.197 314.648 109.197 315.316V318.904H107.377V311.702H109.197V312.82ZM118.17 313.496V315.03H112.658V313.496H118.17ZM121.135 310.844C120.805 310.844 120.532 310.744 120.316 310.545C120.108 310.337 120.004 310.081 120.004 309.778C120.004 309.474 120.108 309.223 120.316 309.024C120.532 308.816 120.805 308.712 121.135 308.712C121.455 308.712 121.72 308.816 121.928 309.024C122.136 309.223 122.24 309.474 122.24 309.778C122.24 310.081 122.136 310.337 121.928 310.545C121.72 310.744 121.455 310.844 121.135 310.844ZM122.032 320.087C122.032 320.884 121.832 321.456 121.434 321.803C121.044 322.158 120.48 322.336 119.744 322.336H118.938V320.789H119.458C119.735 320.789 119.93 320.732 120.043 320.62C120.155 320.516 120.212 320.342 120.212 320.1V311.702H122.032V320.087ZM127.028 319.021C126.334 319.021 125.71 318.869 125.156 318.566C124.601 318.254 124.163 317.816 123.843 317.253C123.531 316.689 123.375 316.039 123.375 315.303C123.375 314.566 123.535 313.916 123.856 313.353C124.185 312.789 124.631 312.356 125.195 312.053C125.758 311.741 126.386 311.585 127.08 311.585C127.773 311.585 128.401 311.741 128.965 312.053C129.528 312.356 129.97 312.789 130.291 313.353C130.62 313.916 130.785 314.566 130.785 315.303C130.785 316.039 130.616 316.689 130.278 317.253C129.948 317.816 129.498 318.254 128.926 318.566C128.362 318.869 127.73 319.021 127.028 319.021ZM127.028 317.435C127.357 317.435 127.665 317.357 127.951 317.201C128.245 317.036 128.479 316.793 128.653 316.473C128.826 316.152 128.913 315.762 128.913 315.303C128.913 314.618 128.731 314.094 128.367 313.73C128.011 313.357 127.574 313.171 127.054 313.171C126.534 313.171 126.096 313.357 125.741 313.73C125.394 314.094 125.221 314.618 125.221 315.303C125.221 315.987 125.39 316.516 125.728 316.889C126.074 317.253 126.508 317.435 127.028 317.435ZM138.919 311.702V318.904H137.086V317.994C136.852 318.306 136.544 318.553 136.163 318.735C135.79 318.908 135.383 318.995 134.941 318.995C134.377 318.995 133.879 318.878 133.446 318.644C133.012 318.401 132.67 318.05 132.419 317.591C132.176 317.123 132.055 316.568 132.055 315.927V311.702H133.875V315.667C133.875 316.239 134.018 316.681 134.304 316.993C134.59 317.296 134.98 317.448 135.474 317.448C135.976 317.448 136.371 317.296 136.657 316.993C136.943 316.681 137.086 316.239 137.086 315.667V311.702H138.919ZM142.534 312.82C142.768 312.438 143.072 312.139 143.444 311.923C143.826 311.706 144.259 311.598 144.744 311.598V313.509H144.263C143.691 313.509 143.258 313.643 142.963 313.912C142.677 314.18 142.534 314.648 142.534 315.316V318.904H140.714V311.702H142.534V312.82ZM149.961 311.598C150.819 311.598 151.513 311.871 152.041 312.417C152.57 312.954 152.834 313.708 152.834 314.679V318.904H151.014V314.926C151.014 314.354 150.871 313.916 150.585 313.613C150.299 313.301 149.909 313.145 149.415 313.145C148.913 313.145 148.514 313.301 148.219 313.613C147.933 313.916 147.79 314.354 147.79 314.926V318.904H145.97V311.702H147.79V312.599C148.033 312.287 148.341 312.044 148.713 311.871C149.095 311.689 149.511 311.598 149.961 311.598ZM161.26 315.147C161.26 315.407 161.243 315.641 161.208 315.849H155.943C155.986 316.369 156.168 316.776 156.489 317.071C156.81 317.365 157.204 317.513 157.672 317.513C158.348 317.513 158.829 317.222 159.115 316.642H161.078C160.87 317.335 160.471 317.907 159.882 318.358C159.293 318.8 158.569 319.021 157.711 319.021C157.018 319.021 156.394 318.869 155.839 318.566C155.293 318.254 154.864 317.816 154.552 317.253C154.249 316.689 154.097 316.039 154.097 315.303C154.097 314.557 154.249 313.903 154.552 313.34C154.855 312.776 155.28 312.343 155.826 312.04C156.372 311.736 157 311.585 157.711 311.585C158.396 311.585 159.007 311.732 159.544 312.027C160.09 312.321 160.51 312.742 160.805 313.288C161.108 313.825 161.26 314.445 161.26 315.147ZM159.375 314.627C159.366 314.159 159.197 313.786 158.868 313.509C158.539 313.223 158.136 313.08 157.659 313.08C157.208 313.08 156.827 313.218 156.515 313.496C156.212 313.764 156.025 314.141 155.956 314.627H159.375ZM169.478 311.702L165.019 322.31H163.082L164.642 318.722L161.756 311.702H163.797L165.656 316.733L167.541 311.702H169.478ZM171.266 318.995C170.936 318.995 170.663 318.895 170.447 318.696C170.239 318.488 170.135 318.232 170.135 317.929C170.135 317.625 170.239 317.374 170.447 317.175C170.663 316.967 170.936 316.863 171.266 316.863C171.586 316.863 171.851 316.967 172.059 317.175C172.267 317.374 172.371 317.625 172.371 317.929C172.371 318.232 172.267 318.488 172.059 318.696C171.851 318.895 171.586 318.995 171.266 318.995ZM175.657 312.742C175.891 312.412 176.211 312.139 176.619 311.923C177.035 311.697 177.507 311.585 178.036 311.585C178.651 311.585 179.206 311.736 179.7 312.04C180.202 312.343 180.597 312.776 180.883 313.34C181.177 313.894 181.325 314.54 181.325 315.277C181.325 316.013 181.177 316.668 180.883 317.24C180.597 317.803 180.202 318.241 179.7 318.553C179.206 318.865 178.651 319.021 178.036 319.021C177.507 319.021 177.039 318.912 176.632 318.696C176.233 318.479 175.908 318.206 175.657 317.877V322.336H173.837V311.702H175.657V312.742ZM179.466 315.277C179.466 314.843 179.375 314.471 179.193 314.159C179.019 313.838 178.785 313.595 178.491 313.431C178.205 313.266 177.893 313.184 177.555 313.184C177.225 313.184 176.913 313.27 176.619 313.444C176.333 313.608 176.099 313.851 175.917 314.172C175.743 314.492 175.657 314.869 175.657 315.303C175.657 315.736 175.743 316.113 175.917 316.434C176.099 316.754 176.333 317.001 176.619 317.175C176.913 317.339 177.225 317.422 177.555 317.422C177.893 317.422 178.205 317.335 178.491 317.162C178.785 316.988 179.019 316.741 179.193 316.421C179.375 316.1 179.466 315.719 179.466 315.277ZM182.179 315.277C182.179 314.549 182.322 313.903 182.608 313.34C182.903 312.776 183.301 312.343 183.804 312.04C184.307 311.736 184.866 311.585 185.481 311.585C185.949 311.585 186.395 311.689 186.82 311.897C187.245 312.096 187.583 312.365 187.834 312.703V309.284H189.68V318.904H187.834V317.838C187.609 318.193 187.292 318.479 186.885 318.696C186.478 318.912 186.005 319.021 185.468 319.021C184.861 319.021 184.307 318.865 183.804 318.553C183.301 318.241 182.903 317.803 182.608 317.24C182.322 316.668 182.179 316.013 182.179 315.277ZM187.847 315.303C187.847 314.861 187.76 314.484 187.587 314.172C187.414 313.851 187.18 313.608 186.885 313.444C186.59 313.27 186.274 313.184 185.936 313.184C185.598 313.184 185.286 313.266 185 313.431C184.714 313.595 184.48 313.838 184.298 314.159C184.125 314.471 184.038 314.843 184.038 315.277C184.038 315.71 184.125 316.091 184.298 316.421C184.48 316.741 184.714 316.988 185 317.162C185.295 317.335 185.607 317.422 185.936 317.422C186.274 317.422 186.59 317.339 186.885 317.175C187.18 317.001 187.414 316.759 187.587 316.447C187.76 316.126 187.847 315.745 187.847 315.303ZM194.76 313.197H193.499V318.904H191.653V313.197H190.834V311.702H191.653V311.338C191.653 310.454 191.904 309.804 192.407 309.388C192.909 308.972 193.668 308.777 194.682 308.803V310.337C194.24 310.328 193.932 310.402 193.759 310.558C193.585 310.714 193.499 310.995 193.499 311.403V311.702H194.76V313.197Z" fill="#333333"/>
<path d="M261.217 310.584V309.505H263.661V318.904H262.465V310.584H261.217ZM265.55 317.955C266.65 317.071 267.513 316.347 268.137 315.784C268.761 315.212 269.285 314.618 269.71 314.003C270.143 313.379 270.36 312.768 270.36 312.17C270.36 311.606 270.221 311.164 269.944 310.844C269.675 310.514 269.237 310.35 268.631 310.35C268.041 310.35 267.582 310.536 267.253 310.909C266.932 311.273 266.759 311.762 266.733 312.378H265.589C265.623 311.407 265.918 310.657 266.473 310.129C267.027 309.6 267.742 309.336 268.618 309.336C269.51 309.336 270.217 309.583 270.737 310.077C271.265 310.571 271.53 311.251 271.53 312.118C271.53 312.837 271.313 313.539 270.88 314.224C270.455 314.9 269.97 315.498 269.424 316.018C268.878 316.529 268.18 317.127 267.331 317.812H271.803V318.8H265.55V317.955ZM286.022 309.908V318.904H284.839V312.196L281.849 318.904H281.017L278.014 312.183V318.904H276.831V309.908H278.105L281.433 317.344L284.761 309.908H286.022ZM292.565 314.237C292.895 314.289 293.194 314.423 293.462 314.64C293.74 314.856 293.956 315.125 294.112 315.446C294.277 315.766 294.359 316.109 294.359 316.473C294.359 316.932 294.242 317.348 294.008 317.721C293.774 318.085 293.432 318.375 292.981 318.592C292.539 318.8 292.015 318.904 291.408 318.904H288.028V309.843H291.278C291.894 309.843 292.418 309.947 292.851 310.155C293.285 310.354 293.61 310.627 293.826 310.974C294.043 311.32 294.151 311.71 294.151 312.144C294.151 312.681 294.004 313.127 293.709 313.483C293.423 313.829 293.042 314.081 292.565 314.237ZM289.211 313.756H291.2C291.755 313.756 292.184 313.626 292.487 313.366C292.791 313.106 292.942 312.746 292.942 312.287C292.942 311.827 292.791 311.468 292.487 311.208C292.184 310.948 291.746 310.818 291.174 310.818H289.211V313.756ZM291.304 317.929C291.894 317.929 292.353 317.79 292.682 317.513C293.012 317.235 293.176 316.85 293.176 316.356C293.176 315.853 293.003 315.459 292.656 315.173C292.31 314.878 291.846 314.731 291.265 314.731H289.211V317.929H291.304Z" fill="#4F4F4F"/>
<line x1="86" y1="339.904" x2="387" y2="339.904" stroke="#2F80ED" stroke-opacity="0.25" stroke-width="6" stroke-linecap="round"/>
<line x1="86" y1="339.904" x2="246" y2="339.904" stroke="#2F80ED" stroke-width="6" stroke-linecap="round"/>
<path d="M62 317.112V339.058C62 340.343 61.4943 341.576 60.5941 342.484C59.6939 343.393 58.473 343.904 57.2 343.904H34.8C33.527 343.904 32.3061 343.393 31.4059 342.484C30.5057 341.576 30 340.343 30 339.058V306.75C30 305.465 30.5057 304.232 31.4059 303.323C32.3061 302.414 33.527 301.904 34.8 301.904H46.5C47.3484 301.904 46.337 302.244 46.937 302.85L61.063 317.112C61.6628 317.717 61.9999 316.255 62 317.112Z" fill="#EB5757" stroke="#EB5757" stroke-width="2" stroke-linejoin="round"/>
<path d="M47 301.904C47 306.528 47 313.746 47 313.746C47 314.583 47.3327 315.387 47.9249 315.979C48.5171 316.571 49.3204 316.904 50.1579 316.904H62" fill="#F9A2A2"/>
<path d="M47 301.904C47 306.528 47 313.746 47 313.746C47 314.583 47.3327 315.387 47.9249 315.979C48.5171 316.571 49.3204 316.904 50.1579 316.904H62L47 301.904Z" stroke="#F9A2A2" stroke-width="2" stroke-linecap="round" stroke-linejoin="round"/>
<path d="M46.2253 334.276C46.2253 334.65 46.1353 335 45.9553 335.326C45.782 335.653 45.5053 335.916 45.1253 336.116C44.752 336.316 44.2786 336.416 43.7053 336.416H42.5353V339.096H41.1353V332.116H43.7053C44.2453 332.116 44.7053 332.21 45.0853 332.396C45.4653 332.583 45.7486 332.84 45.9353 333.166C46.1286 333.493 46.2253 333.863 46.2253 334.276ZM43.6453 335.286C44.032 335.286 44.3186 335.2 44.5053 335.026C44.692 334.846 44.7853 334.596 44.7853 334.276C44.7853 333.596 44.4053 333.256 43.6453 333.256H42.5353V335.286H43.6453ZM49.6593 332.116C50.3926 332.116 51.036 332.26 51.5893 332.546C52.1493 332.833 52.5793 333.243 52.8793 333.776C53.186 334.303 53.3393 334.916 53.3393 335.616C53.3393 336.316 53.186 336.93 52.8793 337.456C52.5793 337.976 52.1493 338.38 51.5893 338.666C51.036 338.953 50.3926 339.096 49.6593 339.096H47.2193V332.116H49.6593ZM49.6093 337.906C50.3426 337.906 50.9093 337.706 51.3093 337.306C51.7093 336.906 51.9093 336.343 51.9093 335.616C51.9093 334.89 51.7093 334.323 51.3093 333.916C50.9093 333.503 50.3426 333.296 49.6093 333.296H48.6193V337.906H49.6093ZM58.6973 332.116V333.246H55.7873V335.036H58.0173V336.146H55.7873V339.096H54.3873V332.116H58.6973Z" fill="#F2F2F2"/>
<path d="M37.696 391.069H35.239V393.591H33.523V391.069H31.066V389.483H33.523V386.961H35.239V389.483H37.696V391.069ZM48.3184 393.175H44.7044L44.1064 394.904H42.1954L45.4584 385.817H47.5774L50.8404 394.904H48.9164L48.3184 393.175ZM47.8244 391.719L46.5114 387.923L45.1984 391.719H47.8244ZM51.5921 391.277C51.5921 390.549 51.7351 389.903 52.0211 389.34C52.3158 388.776 52.7144 388.343 53.2171 388.04C53.7198 387.736 54.2788 387.585 54.8941 387.585C55.3621 387.585 55.8084 387.689 56.2331 387.897C56.6578 388.096 56.9958 388.365 57.2471 388.703V385.284H59.0931V394.904H57.2471V393.838C57.0218 394.193 56.7054 394.479 56.2981 394.696C55.8908 394.912 55.4184 395.021 54.8811 395.021C54.2744 395.021 53.7198 394.865 53.2171 394.553C52.7144 394.241 52.3158 393.803 52.0211 393.24C51.7351 392.668 51.5921 392.013 51.5921 391.277ZM57.2601 391.303C57.2601 390.861 57.1734 390.484 57.0001 390.172C56.8268 389.851 56.5928 389.608 56.2981 389.444C56.0034 389.27 55.6871 389.184 55.3491 389.184C55.0111 389.184 54.6991 389.266 54.4131 389.431C54.1271 389.595 53.8931 389.838 53.7111 390.159C53.5378 390.471 53.4511 390.843 53.4511 391.277C53.4511 391.71 53.5378 392.091 53.7111 392.421C53.8931 392.741 54.1271 392.988 54.4131 393.162C54.7078 393.335 55.0198 393.422 55.3491 393.422C55.6871 393.422 56.0034 393.339 56.2981 393.175C56.5928 393.001 56.8268 392.759 57.0001 392.447C57.1734 392.126 57.2601 391.745 57.2601 391.303ZM60.4026 391.277C60.4026 390.549 60.5456 389.903 60.8316 389.34C61.1263 388.776 61.525 388.343 62.0276 388.04C62.5303 387.736 63.0893 387.585 63.7046 387.585C64.1726 387.585 64.619 387.689 65.0436 387.897C65.4683 388.096 65.8063 388.365 66.0576 388.703V385.284H67.9036V394.904H66.0576V393.838C65.8323 394.193 65.516 394.479 65.1086 394.696C64.7013 394.912 64.229 395.021 63.6916 395.021C63.085 395.021 62.5303 394.865 62.0276 394.553C61.525 394.241 61.1263 393.803 60.8316 393.24C60.5456 392.668 60.4026 392.013 60.4026 391.277ZM66.0706 391.303C66.0706 390.861 65.984 390.484 65.8106 390.172C65.6373 389.851 65.4033 389.608 65.1086 389.444C64.814 389.27 64.4976 389.184 64.1596 389.184C63.8216 389.184 63.5096 389.266 63.2236 389.431C62.9376 389.595 62.7036 389.838 62.5216 390.159C62.3483 390.471 62.2616 390.843 62.2616 391.277C62.2616 391.71 62.3483 392.091 62.5216 392.421C62.7036 392.741 62.9376 392.988 63.2236 393.162C63.5183 393.335 63.8303 393.422 64.1596 393.422C64.4976 393.422 64.814 393.339 65.1086 393.175C65.4033 393.001 65.6373 392.759 65.8106 392.447C65.984 392.126 66.0706 391.745 66.0706 391.303ZM80.5398 394.904H78.7198L74.5988 388.677V394.904H72.7788V385.817H74.5988L78.7198 392.057V385.817H80.5398V394.904ZM89.0334 391.147C89.0334 391.407 89.0161 391.641 88.9814 391.849H83.7164C83.7597 392.369 83.9417 392.776 84.2624 393.071C84.5831 393.365 84.9774 393.513 85.4454 393.513C86.1214 393.513 86.6024 393.222 86.8884 392.642H88.8514C88.6434 393.335 88.2447 393.907 87.6554 394.358C87.0661 394.8 86.3424 395.021 85.4844 395.021C84.7911 395.021 84.1671 394.869 83.6124 394.566C83.0664 394.254 82.6374 393.816 82.3254 393.253C82.0221 392.689 81.8704 392.039 81.8704 391.303C81.8704 390.557 82.0221 389.903 82.3254 389.34C82.6287 388.776 83.0534 388.343 83.5994 388.04C84.1454 387.736 84.7737 387.585 85.4844 387.585C86.1691 387.585 86.7801 387.732 87.3174 388.027C87.8634 388.321 88.2837 388.742 88.5784 389.288C88.8817 389.825 89.0334 390.445 89.0334 391.147ZM87.1484 390.627C87.1397 390.159 86.9707 389.786 86.6414 389.509C86.3121 389.223 85.9091 389.08 85.4324 389.08C84.9817 389.08 84.6004 389.218 84.2884 389.496C83.9851 389.764 83.7987 390.141 83.7294 390.627H87.1484ZM100.346 387.702L98.2398 394.904H96.2768L94.9638 389.873L93.6508 394.904H91.6748L89.5558 387.702H91.4018L92.6758 393.188L94.0538 387.702H95.9778L97.3298 393.175L98.6038 387.702H100.346ZM110.031 385.83V387.299H106.248V389.626H109.147V391.069H106.248V394.904H104.428V385.83H110.031ZM112.245 386.844C111.924 386.844 111.655 386.744 111.439 386.545C111.231 386.337 111.127 386.081 111.127 385.778C111.127 385.474 111.231 385.223 111.439 385.024C111.655 384.816 111.924 384.712 112.245 384.712C112.565 384.712 112.83 384.816 113.038 385.024C113.254 385.223 113.363 385.474 113.363 385.778C113.363 386.081 113.254 386.337 113.038 386.545C112.83 386.744 112.565 386.844 112.245 386.844ZM113.142 387.702V394.904H111.322V387.702H113.142ZM116.76 385.284V394.904H114.94V385.284H116.76ZM125.253 391.147C125.253 391.407 125.236 391.641 125.201 391.849H119.936C119.979 392.369 120.161 392.776 120.482 393.071C120.803 393.365 121.197 393.513 121.665 393.513C122.341 393.513 122.822 393.222 123.108 392.642H125.071C124.863 393.335 124.464 393.907 123.875 394.358C123.286 394.8 122.562 395.021 121.704 395.021C121.011 395.021 120.387 394.869 119.832 394.566C119.286 394.254 118.857 393.816 118.545 393.253C118.242 392.689 118.09 392.039 118.09 391.303C118.09 390.557 118.242 389.903 118.545 389.34C118.848 388.776 119.273 388.343 119.819 388.04C120.365 387.736 120.993 387.585 121.704 387.585C122.389 387.585 123 387.732 123.537 388.027C124.083 388.321 124.503 388.742 124.798 389.288C125.101 389.825 125.253 390.445 125.253 391.147ZM123.368 390.627C123.359 390.159 123.19 389.786 122.861 389.509C122.532 389.223 122.129 389.08 121.652 389.08C121.201 389.08 120.82 389.218 120.508 389.496C120.205 389.764 120.018 390.141 119.949 390.627H123.368Z" fill="#2F80ED"/>
</g>
<rect x="5" y="5" width="326" height="432" rx="25" stroke="#1CAF61" stroke-opacity="0.15" stroke-width="10" stroke-linecap="round"/>
<defs>
<clipPath id="clip0_437_6">
<rect x="10" y="10" width="316" height="422" rx="20" fill="white"/>
</clipPath>
</defs>
</svg>
