<svg width="229" height="32" viewBox="0 0 229 32" fill="none" xmlns="http://www.w3.org/2000/svg">
<g clip-path="url(#clip0_46_4697)">
<path d="M229 6C229 7.10457 228.104 8 226.998 8C225.893 8 224.997 7.10457 224.997 6C224.997 4.89543 225.893 4 226.998 4C228.104 4 229 4.89543 229 6Z" fill="#8C8C8C"/>
<path d="M171.33 18.7462C171.4 18.4141 171.244 18.1198 170.943 18.0164L159.74 14.1733C158.229 13.6547 157.445 12.1771 157.801 10.5111C158.254 8.38266 160.39 6.65717 162.571 6.65717H177.067L176.41 9.7429H161.913C161.479 9.7429 161.053 10.0868 160.963 10.5111C160.892 10.8431 161.048 11.1374 161.35 11.2408L172.552 15.0839C174.064 15.6026 174.846 17.08 174.492 18.7462C174.038 20.8746 171.902 22.6 169.721 22.6H155.225L155.882 19.5143H170.378C170.813 19.5143 171.239 19.1703 171.33 18.7462Z" fill="#8C8C8C"/>
<path d="M136.542 6.40002L133.119 22.4715H129.956L133.38 6.40002H136.542Z" fill="#8C8C8C"/>
<path d="M220.336 6.40002C222.956 6.40002 224.638 8.47234 224.093 11.0286L221.683 22.3429H218.52L220.931 11.0286C221.113 10.1765 220.552 9.4857 219.679 9.4857H213.882L211.143 22.3429H207.981L210.72 9.4857H203.342L200.602 22.3429H197.44L200.18 9.4857H203.342L203.999 6.40002H220.336Z" fill="#8C8C8C"/>
<path fill-rule="evenodd" clip-rule="evenodd" d="M84.5771 6.65717C87.1969 6.65717 88.8792 8.72946 88.3347 11.2857L86.5812 19.5143H83.4192L82.7619 22.6H70.6406C68.062 22.6 66.3918 20.592 66.8597 18.091L66.8837 17.9715L68.6368 9.7429H71.7989L72.4562 6.65717H84.5771ZM70.0457 17.9715L70.0308 18.0508C69.8995 18.866 70.4521 19.5143 71.298 19.5143H83.4192L85.172 11.2857C85.3537 10.4336 84.7932 9.7429 83.9197 9.7429H71.7989L70.0457 17.9715Z" fill="#8C8C8C"/>
<path fill-rule="evenodd" clip-rule="evenodd" d="M126.738 6.65717C129.358 6.65717 131.039 8.72946 130.495 11.2857L128.742 19.5143H125.58L124.923 22.6H112.801C110.223 22.6 108.552 20.592 109.02 18.091L109.044 17.9715L110.798 9.7429H113.96L114.617 6.65717H126.738ZM112.206 17.9715L112.192 18.0508C112.06 18.866 112.613 19.5143 113.458 19.5143H125.58L127.333 11.2857C127.515 10.4336 126.954 9.7429 126.081 9.7429H113.96L112.206 17.9715Z" fill="#8C8C8C"/>
<path d="M142.418 9.7429C141.544 9.7429 140.689 10.4336 140.508 11.2857L137.002 27.7429H133.84L137.346 11.2857C137.891 8.72946 140.455 6.65717 143.075 6.65717H153.615L152.958 9.7429H156.12L154.367 17.9715C153.822 20.5277 151.257 22.6 148.638 22.6H141.259L141.917 19.5143H149.295C150.168 19.5143 151.023 18.8235 151.205 17.9715L152.958 9.7429H142.418Z" fill="#8C8C8C"/>
<path d="M92.2997 16.1715C92.1188 17.0235 92.6792 17.7143 93.552 17.7143H100.93L100.273 20.8H92.8946C90.2755 20.8 88.5933 18.7277 89.1377 16.1715L90.4525 10H93.6145L94.2718 6.91431H104.812C107.432 6.91431 109.114 8.98658 108.569 11.5429L106.049 23.3715C105.505 25.9277 102.939 28 100.32 28H90.1747L90.8328 24.9143H100.978C101.85 24.9143 102.706 24.2235 102.887 23.3715L105.407 11.5429C105.589 10.6908 105.028 10 104.155 10H93.6145L92.2997 16.1715Z" fill="#8C8C8C"/>
<path d="M52.1072 17.9715L54.5178 6.65717H51.3558L48.9452 17.9715C48.4005 20.5277 50.0826 22.6 52.7021 22.6H64.0531L64.7105 19.5143H53.3595C52.4864 19.5143 51.9257 18.8235 52.1072 17.9715Z" fill="#8C8C8C"/>
<path d="M179.608 18.2286L179.594 18.3079C179.462 19.1231 180.015 19.7715 180.86 19.7715H192.982L195.721 6.91431H198.883L196.144 19.7715H192.982L192.325 22.8571H180.203C177.625 22.8571 175.955 20.8491 176.422 18.3481L176.446 18.2286L178.857 6.91431H182.019L179.608 18.2286Z" fill="#8C8C8C"/>
<path fill-rule="evenodd" clip-rule="evenodd" d="M13.6119 0C14.0541 0 14.4126 0.358172 14.4126 0.8V6.71718C14.4126 6.89534 14.6282 6.98456 14.7543 6.85859L21.1498 0.46875C21.45 0.168749 21.8573 6.3835e-05 22.2819 0H29.2943C29.5067 3.23215e-05 29.7104 0.0843744 29.8605 0.234375L32.2626 2.63438C32.5752 2.94678 32.5752 3.45322 32.2626 3.76562L29.1669 6.85859C29.0408 6.98458 29.1301 7.19998 29.3084 7.2H35.6999C35.9122 7.20003 36.1159 7.28438 36.2661 7.43438L38.6682 9.8344C38.9808 10.1468 38.9808 10.6532 38.6682 10.9656L35.5138 14.1172C35.3575 14.2734 35.3575 14.5266 35.5138 14.6828L38.102 17.2687C38.827 17.9931 39.2343 18.9756 39.2343 20C39.2343 21.0244 38.827 22.0069 38.102 22.7313L29.2943 31.5313C28.994 31.8313 28.5867 31.9999 28.1621 32H25.6224C25.1802 32 24.8217 31.6418 24.8217 31.2V25.2828C24.8217 25.1046 24.6061 25.0154 24.4799 25.1414L18.0845 31.5313C17.7843 31.8313 17.3769 31.9999 16.9523 32H9.93996C9.72762 32 9.52392 31.9156 9.37379 31.7656L6.97171 29.3656C6.6591 29.0532 6.6591 28.5468 6.97171 28.2344L10.0674 25.1414C10.1935 25.0154 10.1042 24.8 9.92587 24.8H3.53434C3.32202 24.8 3.11835 24.7156 2.96822 24.5656L0.566119 22.1656C0.253506 21.8532 0.253507 21.3468 0.566119 21.0344L3.72043 17.8828C3.87675 17.7266 3.87675 17.4734 3.72043 17.3172L1.13224 14.7313C0.407277 14.0069 0 13.0244 0 12C0 10.9756 0.407277 9.99312 1.13224 9.26872L9.93996 0.46875C10.2402 0.168749 10.6475 6.4037e-05 11.0722 0H13.6119ZM16.0711 7.2C15.0093 7.2 13.9905 7.62173 13.2397 8.37184L4.68691 16.9172C4.43476 17.1692 4.61335 17.5999 4.96996 17.6H16.6489C17.0055 17.6001 17.184 18.0309 16.932 18.2828L11.0925 24.1172C10.8403 24.3692 11.0189 24.7999 11.3755 24.8H23.1632C24.225 24.8 25.2438 24.3782 25.9945 23.6282L34.5474 15.0828C34.7837 14.8466 34.6416 14.453 34.3292 14.4047L34.2643 14.4H22.5853C22.2287 14.4 22.0501 13.9692 22.3023 13.7172L28.1418 7.88282C28.3939 7.63084 28.2154 7.20005 27.8587 7.2H16.0711Z" fill="#8C8C8C"/>
</g>
<defs>
<clipPath id="clip0_46_4697">
<rect width="229" height="32" fill="white"/>
</clipPath>
</defs>
</svg>
