<svg width="191" height="32" viewBox="0 0 191 32" fill="none" xmlns="http://www.w3.org/2000/svg">
<g clip-path="url(#clip0_46_4666)">
<path d="M157.034 8.36584H164.085L170.648 19.6978L177.232 8.36584H184.283V23.2483H180.97V8.51464L172.411 23.2483H168.906L160.326 8.51464V23.2483H157.034V8.36584Z" fill="#8C8C8C"/>
<path d="M135.795 17.4654C133.289 17.4654 131.271 15.4456 131.271 12.9156C131.271 10.4069 133.289 8.36584 135.795 8.36584H155.015V11.6825H135.795C135.115 11.6825 134.563 12.2353 134.563 12.9156C134.563 13.6172 135.115 14.17 135.795 14.17H150.471C152.977 14.17 155.015 16.1898 155.015 18.7198C155.015 21.2286 152.977 23.2483 150.471 23.2483H131.271V19.9529H150.471C151.151 19.9529 151.703 19.4001 151.703 18.7198C151.703 18.0182 151.151 17.4654 150.471 17.4654H135.795Z" fill="#8C8C8C"/>
<path d="M123.756 8.36584C126.941 8.36584 129.533 10.9596 129.533 14.17C129.533 17.3591 126.941 19.9529 123.756 19.9529H108.889V23.2483H105.597V8.36584H123.756ZM123.734 16.6362C125.115 16.6362 126.22 15.5306 126.22 14.17C126.22 12.7881 125.115 11.6825 123.734 11.6825H108.889V16.6362H123.734Z" fill="#8C8C8C"/>
<path d="M87.8879 11.6825C85.5943 11.6825 83.7467 13.5322 83.7467 15.807C83.7467 18.1032 85.5943 19.9529 87.8879 19.9529H100.164V17.3591H87.5691V14.0637H103.477V23.2483H87.8879C83.7674 23.2483 80.4541 19.9316 80.4541 15.807C80.4541 11.7038 83.7674 8.36584 87.8879 8.36584H103.477V11.6825H87.8879Z" fill="#8C8C8C"/>
<path d="M59.1381 23.2483V8.36584H62.4301V19.9529H79.0597V23.2483H59.1381Z" fill="#8C8C8C"/>
<path d="M190.449 7.53412C190.449 8.6023 189.584 9.4683 188.517 9.4683C187.45 9.4683 186.585 8.6023 186.585 7.53412C186.585 6.46592 187.45 5.59998 188.517 5.59998C189.584 5.59998 190.449 6.46592 190.449 7.53412Z" fill="#8C8C8C"/>
<path d="M25.5732 8H33.5649C37.9785 8 41.5565 11.5818 41.5565 16C41.5565 20.4182 37.9785 24 33.5649 24H28.7699V22.4H33.5649C37.0958 22.4 39.9582 19.5346 39.9582 16C39.9582 12.4654 37.0958 9.6 33.5649 9.6H25.5732V17.6H33.5649C34.4476 17.6 35.1632 16.8837 35.1632 16C35.1632 15.1163 34.4476 14.4 33.5649 14.4H28.7699V12.8H33.5649C35.3303 12.8 36.7615 14.2327 36.7615 16C36.7615 17.7673 35.3303 19.2 33.5649 19.2H25.5732V27.2H33.5649C39.744 27.2 44.7532 22.1856 44.7532 16C44.7532 9.8144 39.744 4.8 33.5649 4.8H28.7699V3.2H33.5649C40.6268 3.2 46.3515 8.93072 46.3515 16C46.3515 23.0693 40.6268 28.8 33.5649 28.8H25.5732V32H33.5649C42.3922 32 49.5481 24.8366 49.5481 16C49.5481 7.16345 42.3922 0 33.5649 0H25.5732V8Z" fill="#8C8C8C"/>
<path d="M15.9833 0C7.15596 0 0 7.16345 0 16C0 24.8366 7.15596 32 15.9833 32H23.9749V24H15.9833C11.5696 24 7.99163 20.4182 7.99163 16C7.99163 11.5818 11.5696 8 15.9833 8H20.7782V9.6H15.9833C12.4523 9.6 9.58996 12.4654 9.58996 16C9.58996 19.5346 12.4523 22.4 15.9833 22.4H23.9749V14.4H15.9833C15.1005 14.4 14.3849 15.1163 14.3849 16C14.3849 16.8837 15.1005 17.6 15.9833 17.6H20.7782V19.2H15.9833C14.2178 19.2 12.7866 17.7673 12.7866 16C12.7866 14.2327 14.2178 12.8 15.9833 12.8H23.9749V4.8H15.9833C9.80414 4.8 4.79498 9.8144 4.79498 16C4.79498 22.1856 9.80414 27.2 15.9833 27.2H20.7782V28.8H15.9833C8.92138 28.8 3.19665 23.0693 3.19665 16C3.19665 8.93072 8.92138 3.2 15.9833 3.2H23.9749V0H15.9833Z" fill="#8C8C8C"/>
</g>
<defs>
<clipPath id="clip0_46_4666">
<rect width="191" height="32" fill="white"/>
</clipPath>
</defs>
</svg>
