<svg width="228" height="32" viewBox="0 0 228 32" fill="none" xmlns="http://www.w3.org/2000/svg">
<g clip-path="url(#clip0_46_4684)">
<path d="M28.1883 0C36.583 2.50214e-07 43.3883 6.80527 43.3883 15.2V32C39.8536 32 36.9883 29.1346 36.9883 25.6V15.2C36.9883 10.3399 33.0484 6.4 28.1883 6.4H24.0273C21.9056 6.40003 19.8705 7.24271 18.3703 8.74296L7.52574 19.5883C6.92566 20.1883 6.58828 21.0022 6.58823 21.8508V22.4C6.58823 24.1673 8.02091 25.6 9.78827 25.6H24.1883C24.1883 29.0241 21.4993 31.8198 18.118 31.9914L17.7883 32H9.78827C4.4863 32 0.188232 27.7019 0.188232 22.4V21.8508C0.188282 19.3048 1.19965 16.8628 2.99995 15.0625L13.8452 4.21797C16.5458 1.51748 20.2082 3.50078e-05 24.0273 0H28.1883Z" fill="#8C8C8C"/>
<path d="M29.7883 9.59998C31.9974 9.59998 33.7883 11.3909 33.7883 13.6V32C30.2536 32 27.3883 29.1346 27.3883 25.6V16H24.7132L19.4848 21.2284C18.7347 21.9785 17.7172 22.4 16.6563 22.4H10.1703C9.83523 22.4 9.66747 21.9949 9.90435 21.7581L20.8914 10.7718C21.6415 10.0217 22.6587 9.59998 23.7195 9.59998H29.7883Z" fill="#8C8C8C"/>
<path d="M219.855 24.038V13.7274C219.855 13.4303 219.588 13.1628 219.291 13.1628H218.905C218.667 13.1628 218.459 13.3114 218.369 13.5194L214.774 22.0174C214.269 23.2654 213.051 24.038 211.713 24.038C210.377 24.038 209.188 23.2654 208.683 22.0174L205.058 13.5194C204.998 13.3114 204.79 13.1628 204.553 13.1628H204.166C203.869 13.1628 203.602 13.4303 203.602 13.7274V24.038H200.245V13.7274C200.245 11.5583 201.997 9.77545 204.166 9.77545H204.553C206.128 9.77545 207.553 10.7263 208.177 12.2119L211.713 20.5912L215.249 12.2119C215.873 10.7263 217.3 9.77545 218.905 9.77545H219.291C221.46 9.77545 223.213 11.5583 223.213 13.7274V24.038H219.855Z" fill="#8C8C8C"/>
<path d="M184.92 24.038C181.502 24.038 178.739 21.2746 178.739 17.8575V9.77545H182.097V17.8575C182.097 19.4026 183.374 20.6803 184.92 20.6803H192.051C193.596 20.6803 194.874 19.4026 194.874 17.8575V9.77545H198.231V17.8575C198.231 21.2746 195.468 24.038 192.051 24.038H184.92Z" fill="#8C8C8C"/>
<path d="M172.553 20.6803C173.117 20.6803 173.593 20.2049 173.593 19.6403C173.593 19.0758 173.147 18.6301 172.613 18.6004H164.679C162.242 18.6004 160.281 16.6393 160.281 14.2027C160.281 11.7663 162.242 9.77545 164.679 9.77545H176.981V13.1628H164.679C164.114 13.1628 163.639 13.6383 163.639 14.2027C163.639 14.7673 164.114 15.2427 164.679 15.2427H172.672C175.049 15.3022 176.981 17.2335 176.981 19.6403C176.981 22.0769 174.989 24.038 172.553 24.038H160.281V20.6803H172.553Z" fill="#8C8C8C"/>
<path d="M141.426 24.038V13.7274C141.426 11.5583 143.18 9.77545 145.349 9.77545H153.995C156.789 9.77545 159.046 12.0634 159.046 14.8565C159.046 17.6495 156.789 19.9375 153.995 19.9375H144.784V24.038H141.426ZM144.784 13.7274V16.5502H153.995C154.917 16.5502 155.689 15.7776 155.689 14.8565C155.689 13.9354 154.917 13.1628 153.995 13.1628H145.349C145.052 13.1628 144.784 13.4303 144.784 13.7274Z" fill="#8C8C8C"/>
<path d="M135.771 9.77545H139.129V24.038H135.771V9.77545Z" fill="#8C8C8C"/>
<path d="M126.876 20.6803C128.956 20.6803 130.65 18.9866 130.65 16.9067C130.65 14.8565 128.956 13.1628 126.876 13.1628H121.646C119.566 13.1628 117.873 14.8565 117.873 16.9067C117.873 18.9866 119.566 20.6803 121.646 20.6803H126.876ZM126.876 9.77545C130.828 9.77545 134.007 12.9845 134.007 16.9067C134.007 20.8586 130.828 24.038 126.876 24.038H121.646C117.694 24.038 114.515 20.8586 114.515 16.9067C114.515 12.9845 117.694 9.77545 121.646 9.77545H126.876Z" fill="#8C8C8C"/>
<path d="M101.45 24.038C97.4983 24.038 94.3191 20.8586 94.3191 16.9067C94.3191 12.9845 97.4983 9.77545 101.45 9.77545H111.761V13.1628H101.45C99.3703 13.1628 97.6767 14.8565 97.6767 16.9067C97.6767 18.9866 99.3703 20.6803 101.45 20.6803H109.027C109.592 20.6803 110.067 20.2049 110.067 19.6403C110.067 19.0758 109.592 18.6004 109.027 18.6004H100.885V15.2427H109.027C111.464 15.2427 113.454 17.2038 113.454 19.6403C113.454 22.0769 111.464 24.038 109.027 24.038H101.45Z" fill="#8C8C8C"/>
<path d="M86.0777 20.6803C88.1577 20.6803 89.8513 18.9866 89.8513 16.9067C89.8513 14.8565 88.1577 13.1628 86.0777 13.1628H80.8481C78.7684 13.1628 77.0747 14.8565 77.0747 16.9067C77.0747 18.9866 78.7684 20.6803 80.8481 20.6803H86.0777ZM86.0777 9.77545C90.0297 9.77545 93.2089 12.9845 93.2089 16.9067C93.2089 20.8586 90.0297 24.038 86.0777 24.038H80.8481C76.8964 24.038 73.717 20.8586 73.717 16.9067C73.717 12.9845 76.8964 9.77545 80.8481 9.77545H86.0777Z" fill="#8C8C8C"/>
<path d="M59.9671 20.1157C59.9671 20.4129 60.2344 20.6803 60.5316 20.6803H73.1004V24.0379H60.5316C58.3625 24.0379 56.6094 22.2849 56.6094 20.1157V9.68622H59.9671V20.1157Z" fill="#8C8C8C"/>
<path d="M227.302 9.68623C227.302 10.6385 226.53 11.4104 225.578 11.4104C224.625 11.4104 223.854 10.6385 223.854 9.68623C223.854 8.73407 224.625 7.9621 225.578 7.9621C226.53 7.9621 227.302 8.73407 227.302 9.68623Z" fill="#8C8C8C"/>
</g>
<defs>
<clipPath id="clip0_46_4684">
<rect width="228" height="32" fill="white"/>
</clipPath>
</defs>
</svg>
