<svg width="173" height="32" viewBox="0 0 173 32" fill="none" xmlns="http://www.w3.org/2000/svg">
<g clip-path="url(#clip0_46_4675)">
<path d="M13.3421 32H12.3195C9.66333 32 8.06525 31.9995 6.84448 31.7727L13.9094 22.4275L13.3421 32Z" fill="#8C8C8C"/>
<path d="M25.0274 31.8011C23.8276 31.999 22.2556 32 19.7173 32H18.5085L17.9382 22.4247L25.0274 31.8011Z" fill="#8C8C8C"/>
<path d="M31.774 25.3366C31.7224 25.5818 31.6617 25.8124 31.5877 26.0341C31.1029 27.4854 30.252 28.7618 29.1431 29.7586L21.1765 20.8352L31.774 25.3366Z" fill="#8C8C8C"/>
<path d="M2.79165 29.6634C1.73325 28.6809 0.919045 27.44 0.449454 26.0341C0.368137 25.7906 0.300621 25.5368 0.246094 25.2643L10.6715 20.8367L2.79165 29.6634Z" fill="#8C8C8C"/>
<path d="M32.0371 19.6946C32.0371 20.5942 32.0345 21.3723 32.0257 22.0553L22.5645 18.4048H32.0371V19.6946Z" fill="#8C8C8C"/>
<path d="M9.2877 18.4048L0.00853258 21.9844C0.000565538 21.3185 0 20.5632 0 19.6946V18.4048H9.2877Z" fill="#8C8C8C"/>
<path d="M19.7174 0C23.0512 0 24.7182 0.000442934 26.0642 0.448864C28.6715 1.3177 30.7178 3.36166 31.5876 5.96591C32.0366 7.31038 32.037 8.97544 32.037 12.3054V16.0128H22.0326L29.2483 12.9489L27.1081 11.5298L20.1071 14.2301L23.3935 9.8864L21.03 9.24008L17.4008 13.3026L17.1306 8.72728H14.723L14.4485 13.3026L10.8222 9.24008L8.4601 9.8864L11.7423 14.2287L4.74554 11.5298L2.60528 12.9489L9.81959 16.0128H0V12.3054C0 8.97544 0.000443447 7.31038 0.449383 5.96591C1.31923 3.36166 3.36555 1.3177 5.97282 0.448864C7.31884 0.000442934 8.98583 0 12.3196 0H19.7174Z" fill="#8C8C8C"/>
<path d="M74.705 25.1547C75.4578 26.5648 76.9115 27.4523 78.7847 27.4523C80.6579 27.4523 82.1116 26.5648 82.8645 25.1547H85.6821C84.7507 27.9722 82.1621 29.8554 78.7847 29.8554C75.4076 29.8554 72.8187 27.9722 71.8869 25.1547H74.705ZM115.736 10.2078C120.029 10.2078 123.037 13.1573 123.037 17.3906C123.037 21.8697 119.701 24.4102 116.173 24.4102C113.986 24.4101 112.127 23.4266 111.143 21.6789V29.8172H108.545V17.418C108.545 13.0209 111.553 10.2078 115.736 10.2078ZM115.763 12.6109C113.002 12.6109 111.143 14.5776 111.143 17.3086C111.143 20.0397 113.002 22.0062 115.763 22.0062C118.552 22.0062 120.412 20.0398 120.412 17.3086C120.412 14.5775 118.552 12.6109 115.763 12.6109ZM63.32 10.2078C67.5854 10.2078 70.5931 13.212 70.5932 17.3086C70.5932 21.4053 67.5855 24.4102 63.32 24.4102C59.0545 24.4102 56.0467 21.4053 56.0467 17.3086C56.0469 13.212 59.0546 10.2078 63.32 10.2078ZM63.32 12.6109C60.5311 12.6109 58.6717 14.5775 58.6716 17.3086C58.6716 20.0398 60.531 22.0062 63.32 22.0062C66.109 22.0062 67.9683 20.0398 67.9683 17.3086C67.9682 14.5775 66.1089 12.6109 63.32 12.6109ZM79.0726 10.2141H86.1379V12.5344H84.315C85.4186 13.7705 86.057 15.4233 86.057 17.3086C86.057 21.4053 83.0495 24.4102 78.7839 24.4102C74.5184 24.4102 71.5107 21.4053 71.5107 17.3086C71.5108 13.212 74.5185 10.2078 78.7839 10.2078C78.8808 10.2078 78.977 10.2109 79.0726 10.2141ZM78.7839 12.6109C75.995 12.6109 74.1357 14.5775 74.1356 17.3086C74.1356 20.0398 75.995 22.0062 78.7839 22.0062C81.5726 22.0062 83.4323 20.0398 83.4323 17.3086C83.4323 14.5775 81.5726 12.6109 78.7839 12.6109ZM94.2489 10.2078C98.5138 10.2078 101.522 13.212 101.522 17.3086C101.522 21.4053 98.5138 24.4102 94.2489 24.4102C89.9831 24.4102 86.9756 21.4053 86.9756 17.3086C86.9756 13.212 89.9831 10.2078 94.2489 10.2078ZM94.2489 12.6109C91.46 12.6109 89.6003 14.5775 89.6003 17.3086C89.6003 20.0398 91.46 22.0062 94.2489 22.0062C97.0377 22.0062 98.8974 20.0398 98.8974 17.3086C98.8966 14.5775 97.0377 12.6109 94.2489 12.6109ZM129.603 10.2078C132.829 10.2079 134.825 12.038 134.88 14.3594H132.309C132.227 13.3216 131.271 12.5564 129.631 12.5562C127.908 12.5562 126.923 13.3762 126.923 14.4414C126.923 15.7247 128.345 15.8612 130.013 16.0797C132.364 16.3801 135.235 16.8172 135.235 19.9031C135.235 22.6342 133.021 24.41 129.631 24.4102C126.239 24.4102 124.107 22.6072 124.025 20.1492H126.649C126.704 21.269 127.744 22.061 129.631 22.061C131.598 22.0608 132.61 21.2143 132.61 20.1492C132.61 18.8656 131.188 18.7013 129.494 18.4828C127.142 18.1824 124.298 17.7456 124.298 14.6593C124.298 12.0102 126.376 10.2078 129.603 10.2078ZM139.347 17.6086C139.347 20.5309 140.961 22.0062 143.422 22.0062C145.883 22.0062 147.496 20.5309 147.496 17.6086V10.5625H150.093V17.6086C150.093 22.0877 147.414 24.4094 143.422 24.4094C139.43 24.4094 136.75 22.115 136.75 17.6086V10.5625H139.347V17.6086ZM45.2381 21.4875H55.2732V24.0547H42.449V6.19296H45.2381V21.4875ZM106.076 24.0547H103.479V10.5625H106.076V24.0547ZM167.201 10.2078C170.373 10.2078 172.78 12.1197 172.78 16.2438V24.0547H170.181V16.2438C170.181 13.7312 168.842 12.611 166.955 12.6109C165.124 12.6109 163.756 13.7857 163.756 16.2438V24.0547H161.158V16.2438C161.158 13.7857 159.764 12.6109 157.932 12.6109C156.045 12.6109 154.705 13.7311 154.705 16.2438V24.0547H152.108V16.2438C152.108 12.1197 154.515 10.2078 157.686 10.2078C159.764 10.2079 161.514 11.1365 162.443 12.8844C163.373 11.1365 165.096 10.2078 167.201 10.2078ZM104.764 4.79999C105.803 4.79999 106.569 5.5646 106.569 6.60233C106.569 7.64017 105.803 8.43279 104.764 8.43279C103.725 8.43271 102.96 7.6401 102.96 6.60233C102.96 5.56468 103.725 4.80009 104.764 4.79999Z" fill="#8C8C8C"/>
</g>
<defs>
<clipPath id="clip0_46_4675">
<rect width="173" height="32" fill="white"/>
</clipPath>
</defs>
</svg>
