<svg width="91" height="72" viewBox="0 0 91 72" fill="none" xmlns="http://www.w3.org/2000/svg">
<path d="M3.76757 71.128C3.76757 69.4831 3.63726 68.1049 3.8268 66.7742C3.90677 66.2081 4.56721 65.6005 5.10918 65.2597C7.73614 63.5911 10.5882 62.2574 13.0374 60.3428C20.9627 54.1426 25.6599 45.9803 25.9175 35.3759C25.9886 32.3677 24.881 31.6119 22.3577 32.7886C15.0632 36.1732 7.21786 34.1875 3.03309 27.8983C-1.53077 21.0342 -0.888095 11.8939 4.58202 5.90118C11.5655 -1.75129 23.0625 -1.98246 30.9908 5.33214C35.7382 9.7126 37.995 15.3675 38.5577 21.8018C40.4443 43.3514 29.6432 61.1163 9.98105 68.9199C8.03526 69.6905 6.04209 70.3248 3.76757 71.128Z" fill="#1CAF61"/>
<path d="M55.5372 71.128C55.5372 69.4831 55.4069 68.1049 55.5965 66.7742C55.6764 66.2081 56.3369 65.6005 56.8788 65.2597C59.5058 63.5911 62.3578 62.2574 64.8071 60.3428C72.7324 54.1426 77.4295 45.9803 77.6872 35.3759C77.7583 32.3677 76.6506 31.6119 74.1273 32.7886C66.8328 36.1732 58.9875 34.1875 54.8027 27.8983C50.2389 21.0342 50.8816 11.8939 56.3517 5.90118C63.3352 -1.75129 74.8322 -1.98246 82.7604 5.33214C87.5079 9.7126 89.7647 15.3675 90.3274 21.8018C92.2139 43.3514 81.4129 61.1163 61.7507 68.9199C59.8049 69.6905 57.8117 70.3248 55.5372 71.128Z" fill="#1CAF61"/>
</svg>
